<svg width="29" height="30" viewBox="0 0 29 30" fill="none" xmlns="http://www.w3.org/2000/svg">
<path d="M0.600935 26.0788C-0.187863 26.8521 -0.20049 28.1183 0.572732 28.9071C1.34595 29.6959 2.61222 29.7085 3.40102 28.9353L0.600935 26.0788ZM29.0009 3.02067C29.0119 1.91616 28.1254 1.01185 27.0209 1.00083L9.02181 0.821355C7.9173 0.810341 7.01298 1.6968 7.00197 2.80131C6.99096 3.90583 7.87742 4.81014 8.98193 4.82116L24.9811 4.98069L24.8216 20.9799C24.8106 22.0844 25.697 22.9887 26.8016 22.9997C27.9061 23.0108 28.8104 22.1243 28.8214 21.0198L29.0009 3.02067ZM3.40102 28.9353L28.401 4.42898L25.6009 1.57249L0.600935 26.0788L3.40102 28.9353Z" fill="#F8B62B"/>
</svg>
