<?xml version="1.0" encoding="UTF-8"?>
<svg width="16px" height="16px" viewBox="0 0 16 16" version="1.1" xmlns="http://www.w3.org/2000/svg" xmlns:xlink="http://www.w3.org/1999/xlink">
    <title>arrow-forward</title>
    <g id="页面-1" stroke="none" stroke-width="1" fill="none" fill-rule="evenodd">
        <g id="arrow-forward">
            <g id="Group-2-Copy-110">
                <rect id="Path" x="0" y="0" width="16" height="16"></rect>
            </g>
            <path d="M8.00000004,1.00190304 C8.4142136,1.00190304 8.75000004,1.33768948 8.75000004,1.75190304 L8.7498071,12.481903 L12.0128628,9.21966991 C12.2791294,8.95340335 12.6957931,8.9291973 12.9894046,9.14705176 L13.073523,9.21966991 C13.3664162,9.51256313 13.3664162,9.98743687 13.073523,10.2803301 L13.073523,10.2803301 L8.65410568,14.6997475 L8.62392651,14.6682375 C8.48941311,14.8694215 8.26017793,15.001903 8.00000004,15.001903 C7.74025362,15.001903 7.51134737,14.8698606 7.37674357,14.6692379 L7.3458944,14.6997475 L2.92647702,10.2803301 C2.6335838,9.98743687 2.6335838,9.51256313 2.92647702,9.21966991 C3.21937024,8.9267767 3.69424397,8.9267767 3.98713719,9.21966991 L7.2498071,12.482903 L7.25000004,1.75190304 C7.25000004,1.33768948 7.58578648,1.00190304 8.00000004,1.00190304 Z" id="Combined-Shape-Copy-90" fill="#FFFFFF" fill-rule="nonzero" transform="translate(8.000000, 8.001903) rotate(-90.000000) translate(-8.000000, -8.001903) "></path>
        </g>
    </g>
</svg>