<?xml version="1.0" encoding="UTF-8"?>
<svg width="28px" height="28px" viewBox="0 0 28 28" version="1.1" xmlns="http://www.w3.org/2000/svg" xmlns:xlink="http://www.w3.org/1999/xlink">
    <title>中国</title>
    <g id="管网" stroke="none" stroke-width="1" fill="none" fill-rule="evenodd">
        <g id="About-Us" transform="translate(-320.000000, -3039.000000)" fill-rule="nonzero">
            <g id="编组-8" transform="translate(0.000000, 2729.000000)">
                <g id="编组-5" transform="translate(236.000000, 119.000000)">
                    <g id="编组-10" transform="translate(80.000000, 187.000000)">
                        <g id="中国" transform="translate(4.000000, 4.000000)">
                            <path d="M0.411223954,10.7054392 C1.74570263,5.19063796 6.27501053,1.0272717 11.8796216,0.163621065 C17.4842328,-0.70002957 23.0555375,1.90686822 25.986399,6.76439567 C28.9172605,11.6219231 28.6279453,17.7692461 25.2538407,22.3296755 C21.8797361,26.8901048 16.0882505,28.9615734 10.5895562,27.5747208 C7.00107316,26.6934826 3.910757,24.4191876 2.00102929,21.2540586 C0.0913015712,18.0889296 -0.480740774,14.2933347 0.411223954,10.7054392" id="路径" fill="#E72D14"></path>
                            <path d="M14.7535354,13.5413026 L14.1087557,14.3254941 L13.167726,13.994391 L13.7079468,14.8482884 L13.0631671,15.6324798 L14.0390498,15.3885092 L14.5966971,16.2424065 L14.5966971,15.2316709 L15.5900063,14.9702737 L14.6489765,14.6043177 L14.7535354,13.5413026 Z M18.5176543,11.4152725 L17.5069187,11.4152725 L17.1932421,10.5090957 L16.8795655,11.4849784 L15.8688299,11.4849784 L16.6878743,12.0774786 L16.3741977,13.0533613 L17.1932421,12.4434346 L18.0122865,13.0533613 L17.6986099,12.0774786 L18.5176543,11.4152725 Z M16.8621391,7.68600645 L17.0189774,8.76644801 L17.4894922,7.86027122 L18.5002279,8.01710951 L17.7683158,7.30262396 L18.2388307,6.39644717 L17.3675069,6.77982966 L16.6530213,6.06534411 L16.8098596,7.07607976 L15.9036828,7.52916816 L16.8621391,7.68600645 Z M14.7709619,3.03313716 L14.1261822,3.81732861 L13.167726,3.43394613 L13.7253732,4.30526996 L13.0631671,5.07203494 L14.0564763,4.82806426 L14.5966971,5.68196162 L14.5966971,4.67122597 L15.6248592,4.4272553 L14.6838295,4.04387281 L14.7709619,3.03313716 Z M7.67838582,7.51174168 L6.7199296,4.56666711 L5.76147338,7.51174168 L2.676987,7.51174168 L5.16897317,9.32409526 L4.21051695,12.2517434 L6.7199296,10.5090957 L9.21191577,12.2517434 L8.25345955,9.32409526 L10.7628722,7.58144759 L7.67838582,7.51174168 Z" id="形状" fill="#FFD700"></path>
                        </g>
                    </g>
                </g>
            </g>
        </g>
    </g>
</svg>