<?xml version="1.0" encoding="UTF-8"?>
<svg width="40px" height="40px" viewBox="0 0 40 40" version="1.1" xmlns="http://www.w3.org/2000/svg" xmlns:xlink="http://www.w3.org/1999/xlink">
    <title>discord</title>
    <g id="页面-1" stroke="none" stroke-width="1" fill="none" fill-rule="evenodd">
        <g id="discord">
            <path d="M33.9137893,7.57392737 C33.9025939,7.5523825 33.8841838,7.53550237 33.861793,7.52630973 C31.2683236,6.33641616 28.5315535,5.48793159 25.7198988,5.00208119 C25.6942738,4.99733187 25.6679025,5.00075889 25.6443922,5.01187216 C25.6210063,5.02298543 25.601601,5.04122144 25.5890373,5.0639866 C25.216356,5.74037472 24.8781314,6.43513444 24.5754833,7.14562987 C21.5445237,6.68553752 18.4616923,6.68553752 15.4307328,7.14562987 C15.1260943,6.43333074 14.7823965,5.73839687 14.401132,5.0639866 C14.3880707,5.04171653 14.3686654,5.02390096 14.3452795,5.0128586 C14.3218937,5.00181748 14.2957711,4.99806205 14.2702706,5.00208119 C11.4583049,5.48691157 8.72132327,6.33545834 6.12823948,7.52637193 C6.10603533,7.53578848 6.08731418,7.55184761 6.07463854,7.57236002 C0.888968523,15.3164579 -0.531575295,22.8701724 0.165297387,30.3302687 C0.16725782,30.3485544 0.172875408,30.3663426 0.181815532,30.3823893 C0.190755656,30.398436 0.202835459,30.4124924 0.217338437,30.4238122 C3.23689861,32.6596518 6.61431752,34.3661992 10.205456,35.4706845 C10.2307451,35.4782725 10.2577508,35.4780237 10.2828409,35.4698138 C10.307931,35.4614794 10.3299112,35.4458059 10.3457962,35.4247835 C11.1170949,34.3752799 11.8005349,33.2639529 12.3891998,32.1021224 C12.3972853,32.0862001 12.4018879,32.0687851 12.4026342,32.0508725 C12.403505,32.0329599 12.4005196,32.0151717 12.3940511,31.998503 C12.3874583,31.9819588 12.3775069,31.9669072 12.3646944,31.9543435 C12.3518819,31.9419042 12.3365816,31.9322016 12.3197885,31.9261063 C11.2420974,31.5137436 10.1987388,31.0166692 9.19953967,30.4394857 C9.18139073,30.4287879 9.16614015,30.4138608 9.15515625,30.3959482 C9.14415991,30.3779112 9.13776611,30.3575107 9.13652218,30.3364883 C9.13527825,30.3154659 9.13922151,30.2945679 9.1480161,30.2754114 C9.15682312,30.2562548 9.17019537,30.2395862 9.1869511,30.2268981 C9.39721257,30.0697898 9.60381688,29.9079545 9.80661477,29.7413923 C9.82440297,29.7267139 9.84592296,29.71726 9.86876151,29.7142746 C9.89160006,29.7111648 9.91483667,29.7145234 9.93587153,29.7239773 C16.4821023,32.7115236 23.5692684,32.7115236 30.0379526,29.7239773 C30.0590994,29.7139014 30.0824853,29.7100452 30.1057467,29.7129063 C30.1288838,29.7156429 30.150777,29.7249724 30.168814,29.7397752 C30.3718234,29.9072081 30.5790621,30.0696654 30.7900326,30.2268981 C30.80695,30.2394618 30.8203845,30.2560061 30.8293408,30.2750382 C30.8382971,30.2940703 30.842402,30.3150927 30.8412825,30.3361151 C30.840163,30.3571376 30.8339433,30.377538 30.8231211,30.395575 C30.8122989,30.413612 30.797123,30.4286635 30.779086,30.4394857 C29.7820762,31.0215205 28.7377971,31.5182217 27.6573196,31.9244892 C27.6405265,31.9309576 27.6252262,31.9407847 27.6125381,31.9534728 C27.59985,31.9661609 27.5898986,31.9813368 27.5835545,31.9981299 C27.5770861,32.0149229 27.5743494,32.0328355 27.5753446,32.0507481 C27.5762153,32.0686607 27.5810667,32.0862001 27.5892766,32.1021224 C28.1877313,33.2574845 28.8701512,34.3674431 29.6310631,35.4229176 C29.6464878,35.444562 29.668381,35.4608575 29.6935084,35.4693162 C29.7186358,35.4778993 29.7458778,35.4782725 29.7713784,35.4705601 C33.368948,34.3696822 36.7523129,32.6630104 39.7755601,30.4238122 C39.7903628,30.4131144 39.8025534,30.3993068 39.8115097,30.3835089 C39.8205903,30.3675866 39.8260636,30.3500472 39.8276807,30.3318858 C40.6619845,21.7072223 38.4308719,14.2153685 33.9137893,7.57392737 Z M13.3668043,25.7878099 C11.395872,25.7878099 9.77192157,23.9792603 9.77192157,21.7579747 C9.77192157,19.5366891 11.3643757,17.728015 13.3668043,17.728015 C15.3848317,17.728015 16.9929843,19.552487 16.9615129,21.7578503 C16.9615129,23.9792603 15.3690338,25.7878099 13.3668043,25.7878099 Z M26.6579463,25.7878099 C24.6871882,25.7878099 23.0632377,23.9792603 23.0632377,21.7579747 C23.0632377,19.5366891 24.6555924,17.728015 26.6579463,17.728015 C28.6760981,17.728015 30.2842507,19.552487 30.2527793,21.7578503 C30.2527793,23.9792603 28.6760981,25.7878099 26.6579463,25.7878099 Z" id="形状" fill="#FFFFFF" fill-rule="nonzero"></path>
            <rect id="矩形" x="0" y="0" width="40" height="40"></rect>
        </g>
    </g>
</svg>