<svg width="31" height="31" viewBox="0 0 31 31" fill="none" xmlns="http://www.w3.org/2000/svg">
<path d="M15.4862 0.425538C6.93002 0.422079 0 7.34864 0 15.8979C0 22.6584 4.33516 28.4051 10.3725 30.5156C11.1856 30.7197 11.061 30.1419 11.061 29.7475V27.0662C6.36607 27.6163 6.17578 24.5094 5.86094 23.9904C5.22433 22.904 3.71931 22.6272 4.16909 22.1082C5.23817 21.5581 6.32801 22.2466 7.59085 24.1115C8.50424 25.4643 10.286 25.2359 11.1891 25.011C11.3863 24.198 11.8084 23.4714 12.3896 22.9075C7.52511 22.0356 5.49766 19.0671 5.49766 15.538C5.49766 13.8254 6.06161 12.2512 7.16875 10.9815C6.46295 8.88826 7.23449 7.09608 7.33828 6.82967C9.34844 6.64976 11.4382 8.26895 11.6008 8.39697C12.7425 8.08904 14.0469 7.92643 15.5069 7.92643C16.9739 7.92643 18.2817 8.09596 19.4338 8.40735C19.8248 8.1098 21.7623 6.71895 23.6306 6.88849C23.7309 7.15489 24.4852 8.90556 23.8209 10.9711C24.9419 12.2443 25.5127 13.8323 25.5127 15.5484C25.5127 19.0844 23.4714 22.0563 18.5931 22.9144C19.0109 23.3253 19.3427 23.8154 19.569 24.3559C19.7954 24.8965 19.9117 25.4768 19.9113 26.0628V29.9551C19.939 30.2665 19.9113 30.5744 20.4302 30.5744C26.5576 28.5089 30.9689 22.7206 30.9689 15.9013C30.9689 7.34864 24.0354 0.425538 15.4862 0.425538Z" fill="white"/>
</svg>
