<?xml version="1.0" encoding="UTF-8"?>
<svg width="40px" height="40px" viewBox="0 0 40 40" version="1.1" xmlns="http://www.w3.org/2000/svg" xmlns:xlink="http://www.w3.org/1999/xlink">
    <title>github</title>
    <g id="页面-1" stroke="none" stroke-width="1" fill="none" fill-rule="evenodd">
        <g id="github" transform="translate(0.000000, 0.000000)" fill="#FFFFFF" fill-rule="nonzero">
            <path d="M20.0022603,-1.47298824e-16 C8.95094111,-0.00458750966 0,9.18522629 0,20.5279558 C0,29.4974481 5.59937227,37.1218815 13.3973115,39.9219871 C14.4475264,40.1927768 14.2865907,39.4261807 14.2865907,38.9029105 L14.2865907,35.3454962 C8.22253293,36.0753413 7.97675087,31.9532621 7.57009774,31.264679 C6.74784058,29.8232979 4.8039291,29.4560536 5.38487321,28.7674704 C6.76571657,28.0376253 8.17337393,28.9510926 9.80448127,31.4253484 C10.9842326,33.2201756 13.2855865,32.9171459 14.4520471,32.6187599 C14.7067542,31.5401122 15.2519463,30.5760958 16.0026349,29.8279415 C9.71957028,28.6711483 7.10087862,24.7326914 7.10087862,20.0504585 C7.10087862,17.7782667 7.8292868,15.6896971 9.25928916,14.0051228 C8.34766492,11.2279169 9.34420015,8.85014235 9.47825722,8.49668292 C12.0746168,8.25798735 14.7737892,10.4062475 14.9838063,10.576098 C16.458447,10.1675519 18.143234,9.95180909 20.0289968,9.95180909 C21.923801,9.95180909 23.6129795,10.176733 25.101053,10.5898696 C25.6060758,10.1950952 28.1085864,8.34978518 30.5217169,8.57472235 C30.6512663,8.92816851 31.625534,11.2508697 30.7675119,13.9913246 C32.2154161,15.6805425 32.9526719,17.7874213 32.9526719,20.0642567 C32.9526719,24.7556442 30.3160913,28.6986121 24.0151894,29.8370961 C24.5548276,30.3822576 24.9833866,31.0324977 25.2756798,31.749606 C25.5681022,32.466847 25.7183174,33.2367599 25.7178008,34.0142354 L25.7178008,39.1783438 C25.7535786,39.5914937 25.7178008,40 26.3880215,40 C34.3022839,37.2595982 40,29.579972 40,20.5324667 C40,9.18522629 31.0445641,-1.47298824e-16 20.0022603,-1.47298824e-16 Z" id="路径"></path>
        </g>
    </g>
</svg>