<?xml version="1.0" encoding="UTF-8"?>
<svg width="28px" height="28px" viewBox="0 0 28 28" version="1.1" xmlns="http://www.w3.org/2000/svg" xmlns:xlink="http://www.w3.org/1999/xlink">
    <title>韩国</title>
    <g id="管网" stroke="none" stroke-width="1" fill="none" fill-rule="evenodd">
        <g id="About-Us" transform="translate(-466.000000, -3240.000000)" fill-rule="nonzero">
            <g id="编组-8" transform="translate(0.000000, 2729.000000)">
                <g id="编组-5" transform="translate(236.000000, 119.000000)">
                    <g id="编组-10备份-2" transform="translate(226.000000, 388.000000)">
                        <g id="韩国" transform="translate(4.000000, 4.000000)">
                            <path d="M0,14 C0,21.7319865 6.2680135,28 14,28 C21.7319865,28 28,21.7319865 28,14 C28,6.2680135 21.7319865,0 14,0 C6.2680135,0 0,6.2680135 0,14 Z" id="路径" fill="#FFFFFF"></path>
                            <path d="M18.8961111,13.2611111 C19.1482598,16.0465593 17.0946148,18.509018 14.3091667,18.7611667 C11.5237185,19.0133153 9.06125979,16.9596704 8.80911112,14.1742222 C8.55696244,11.3887741 10.6106074,8.92631535 13.3960556,8.67416668 C16.1815037,8.422018 18.6439624,10.475663 18.8961111,13.2611111 L18.8961111,13.2611111 Z" id="路径" fill="#CC303C"></path>
                            <path d="M9.54333332,11.1074444 C9.07405499,11.8828418 9.05493944,12.8499119 9.49320946,13.6432483 C9.93147947,14.4365846 10.7603069,14.9352179 11.66652,14.9507399 C12.5727332,14.966262 13.4181511,14.496306 13.8833333,13.7184444 C14.6404322,12.6103201 16.1310326,12.2861334 17.2799801,12.9797167 C18.4289277,13.6733 18.836428,15.1433102 18.2085556,16.3294444 C16.7574033,18.7173756 13.6459427,19.478009 11.2567778,18.0288889 C10.1036021,17.3447757 9.27302608,16.2266909 8.95109606,14.9250819 C8.62916603,13.6234728 8.84278793,12.2471241 9.54411112,11.1043333 L9.54411112,11.1074444 L9.54333332,11.1074444 Z" id="路径" fill="#005C9E"></path>
                            <path d="M3.11577777,9.65688888 L5.95077777,5.45533332 L6.60255556,5.894 L3.76755556,10.094 L3.11577777,9.65688888 Z M4.12922223,10.3382222 L6.96422223,6.13666668 L7.616,6.57688888 L4.781,10.7784444 L4.12922223,10.3382222 L4.12922223,10.3382222 Z M5.13255556,11.0304444 L5.79133332,11.4613333 L8.63022223,7.25511112 L7.96911112,6.79155556 L5.13333332,11.0304444 L5.13255556,11.0304444 Z M20.6173333,17.9324444 L21.9364444,15.9786667 L22.5866667,16.4157778 L21.2675556,18.3703333 L20.6173333,17.9324444 Z M19.0983333,20.2237778 L20.4143333,18.2692222 L21.0668889,18.7047778 L19.7532222,20.6593333 L19.0983333,20.2237778 L19.0983333,20.2237778 Z M21.6167778,18.6355556 L22.9358889,16.6833333 L23.5892222,17.1235556 L22.2701111,19.0757778 L21.6167778,18.6355556 Z M20.1117778,20.8926667 L20.7697778,21.3235556 L22.0881111,19.3728889 L21.4293333,18.9412222 L20.1117778,20.8926667 L20.1117778,20.8926667 Z M22.6348889,19.3184444 L23.9508889,17.3646667 L24.6011111,17.8033333 L23.2835556,19.7555556 L22.6348889,19.3184444 Z M21.1112222,21.574 L22.4233333,19.6163333 L23.0766667,20.0518889 L21.7622222,22.0064444 L21.1112222,21.574 Z M22.953,10.78 L23.6156667,10.3491111 L20.7728889,6.14288888 L20.1148889,6.57377777 L22.953,10.78 Z M21.1158889,5.88311112 L21.7622222,5.44444444 L23.0821111,7.39666668 L22.4311111,7.83766668 L21.1166667,5.88311112 L21.1158889,5.88311112 Z M22.6481111,8.16355556 L23.3068889,7.72488888 L24.6275556,9.67711112 L23.9773333,10.1173333 L22.6488889,8.16355556 L22.6481111,8.16355556 Z M19.0952222,7.25355556 L19.7407778,6.81022223 L21.0575556,8.76555556 L20.4057778,9.20422223 L19.0952222,7.25355556 L19.0952222,7.25355556 Z M20.6111111,9.50755556 L21.2628889,9.06888888 L22.5788889,11.0226667 L21.9286667,11.4644444 L20.6111111,9.50755556 L20.6111111,9.50755556 Z M5.11933332,16.4344444 L5.76955556,15.9973333 L8.60766668,20.1973333 L7.95588888,20.6375556 L5.11933332,16.4344444 L5.11933332,16.4344444 Z M3.11111112,17.7846667 L3.76288888,17.346 L6.594,21.5491111 L5.943,21.9877778 L3.11111112,17.7846667 Z M4.11366668,17.1297778 L4.76855556,16.6973333 L6.08611112,18.6511111 L5.43433332,19.0897778 L4.11366668,17.1297778 L4.11366668,17.1297778 Z M6.94866668,21.3204444 L7.60666668,20.8895556 L6.29222223,18.9381111 L5.63344444,19.3697778 L6.94788888,21.3204444 L6.94866668,21.3204444 Z" id="形状" fill="#231815"></path>
                        </g>
                    </g>
                </g>
            </g>
        </g>
    </g>
</svg>