<?xml version="1.0" encoding="UTF-8"?>
<svg width="860px" height="900px" viewBox="0 0 860 900" version="1.1" xmlns="http://www.w3.org/2000/svg" xmlns:xlink="http://www.w3.org/1999/xlink">
    <title>编组 49</title>
    <defs>
        <rect id="path-1" x="0" y="0" width="1440" height="900"></rect>
        <path d="M64,0 L356,0 C371.463973,-2.84068575e-15 384,12.536027 384,28 L384,463 C384,478.463973 371.463973,491 356,491 L64,491 C48.536027,491 36,478.463973 36,463 L36,28 C36,12.536027 48.536027,2.84068575e-15 64,0 Z" id="path-3"></path>
        <filter x="-24.7%" y="-11.8%" width="149.4%" height="135.0%" filterUnits="objectBoundingBox" id="filter-4">
            <feMorphology radius="6" operator="dilate" in="SourceAlpha" result="shadowSpreadOuter1"></feMorphology>
            <feOffset dx="0" dy="28" in="shadowSpreadOuter1" result="shadowOffsetOuter1"></feOffset>
            <feGaussianBlur stdDeviation="18" in="shadowOffsetOuter1" result="shadowBlurOuter1"></feGaussianBlur>
            <feColorMatrix values="0 0 0 0 0.141176471   0 0 0 0 0.149019608   0 0 0 0 0.160784314  0 0 0 0.02 0" type="matrix" in="shadowBlurOuter1"></feColorMatrix>
        </filter>
        <linearGradient x1="2.42890995%" y1="68.6901969%" x2="100%" y2="39.4921473%" id="linearGradient-5">
            <stop stop-color="#FFDB1B" offset="0%"></stop>
            <stop stop-color="#F8B42A" offset="100%"></stop>
        </linearGradient>
        <path d="M0,443.39598 C8.00661195,402.854633 28.2772854,382.583959 60.8120205,382.583959 C109.614123,382.583959 102.651846,357.154113 136.917869,358.418257 C171.183892,359.6824 176.918144,387.985225 273.30262,318.085841 C337.558938,271.486251 386.458065,236.790971 420,214" id="path-6"></path>
        <filter x="-4.3%" y="-9.7%" width="115.8%" height="122.7%" filterUnits="objectBoundingBox" id="filter-7">
            <feMorphology radius="3.5" operator="dilate" in="SourceAlpha" result="shadowSpreadOuter1"></feMorphology>
            <feOffset dx="22" dy="4" in="shadowSpreadOuter1" result="shadowOffsetOuter1"></feOffset>
            <feMorphology radius="3.5" operator="erode" in="SourceAlpha" result="shadowInner"></feMorphology>
            <feOffset dx="22" dy="4" in="shadowInner" result="shadowInner"></feOffset>
            <feComposite in="shadowOffsetOuter1" in2="shadowInner" operator="out" result="shadowOffsetOuter1"></feComposite>
            <feGaussianBlur stdDeviation="3.5" in="shadowOffsetOuter1" result="shadowBlurOuter1"></feGaussianBlur>
            <feColorMatrix values="0 0 0 0 1   0 0 0 0 0.858823529   0 0 0 0 0.105882353  0 0 0 0.25 0" type="matrix" in="shadowBlurOuter1"></feColorMatrix>
        </filter>
        <circle id="path-8" cx="266" cy="317" r="10"></circle>
        <filter x="-90.0%" y="-105.0%" width="425.0%" height="350.0%" filterUnits="objectBoundingBox" id="filter-9">
            <feMorphology radius="3.5" operator="dilate" in="SourceAlpha" result="shadowSpreadOuter1"></feMorphology>
            <feOffset dx="22" dy="4" in="shadowSpreadOuter1" result="shadowOffsetOuter1"></feOffset>
            <feGaussianBlur stdDeviation="3.5" in="shadowOffsetOuter1" result="shadowBlurOuter1"></feGaussianBlur>
            <feComposite in="shadowBlurOuter1" in2="SourceAlpha" operator="out" result="shadowBlurOuter1"></feComposite>
            <feColorMatrix values="0 0 0 0 1   0 0 0 0 0.858823529   0 0 0 0 0.105882353  0 0 0 0.25 0" type="matrix" in="shadowBlurOuter1"></feColorMatrix>
        </filter>
        <filter id="filter-10">
            <feColorMatrix in="SourceGraphic" type="matrix" values="0 0 0 0 1.000000 0 0 0 0 0.858824 0 0 0 0 0.105882 0 0 0 1.000000 0"></feColorMatrix>
        </filter>
    </defs>
    <g id="管网" stroke="none" stroke-width="1" fill="none" fill-rule="evenodd">
        <g id="About-Us" transform="translate(-580.000000, 0.000000)">
            <g id="编组-11" transform="translate(-0.003615, -325.000000)">
                <g id="编组-49" transform="translate(0.003615, 0.000000)">
                    <circle id="椭圆形" stroke="#FFDB1B" cx="1273.50361" cy="568.5" r="498"></circle>
                    <circle id="椭圆形" stroke="#FFDB1B" cx="1253.50361" cy="618.5" r="518"></circle>
                    <circle id="椭圆形" stroke="#FFDB1B" cx="1152.50361" cy="568.5" r="568"></circle>
                    <g id="编组-50" transform="translate(0.000000, 325.000000)">
                        <mask id="mask-2" fill="white">
                            <use xlink:href="#path-1"></use>
                        </mask>
                        <g id="矩形"></g>
                        <g id="形状结合-2" mask="url(#mask-2)">
                            <g transform="translate(0.003615, 0.000000)" id="形状结合">
                                <path d="M1440.00361,0 L1440.003,72 L1440.0067,72 L1440.0067,674.291 L248.055863,778.573339 C151.086813,787.057031 60.8638056,748.41462 0.00111544077,681.621735 L2.27373675e-13,277.83073 L0.003,277.827 L0.00361458331,0 L1440.00361,0 Z"></path>
                            </g>
                        </g>
                        <g id="编组-17" mask="url(#mask-2)">
                            <g transform="translate(584.003615, -325.000000)" id="椭圆形">
                                <circle stroke="#FFFFFF" stroke-width="1" fill="none" cx="689.5" cy="568.5" r="498"></circle>
                                <circle stroke="#FFFFFF" stroke-width="1" fill="none" cx="669.5" cy="618.5" r="518"></circle>
                                <circle stroke="#FFFFFF" stroke-width="1" fill="none" cx="568.5" cy="568.5" r="568"></circle>
                                <circle stroke="none" fill="#FFFFFF" fill-rule="evenodd" cx="156" cy="522" r="10"></circle>
                                <circle stroke="none" fill="#FFFFFF" fill-rule="evenodd" cx="74" cy="836" r="15"></circle>
                            </g>
                        </g>
                        <g id="编组-45" mask="url(#mask-2)">
                            <g transform="translate(1095.000000, 160.000000)">
                                <rect id="矩形" stroke="#FFFFFF" fill-opacity="0.3" fill="#FFFFFF" x="0.5" y="0.5" width="99" height="99" rx="12"></rect>
                                <g id="chain-logo" stroke="none" fill="none" transform="translate(18.003615, 18.000000)">
                                    <g id="编组" fill="#000000" fill-rule="nonzero">
                                        <path d="M32,9.00571429 C22.4914286,9.00571429 14.72,16.7314286 14.72,26.2857143 C14.72,28.2057143 15.04,30.08 15.6342857,31.9085714 C16.0457143,33.1428571 17.4171429,33.8285714 18.6971429,33.4171429 C19.9314286,33.0057143 20.6171429,31.6342857 20.2057143,30.3542857 C19.7028571,28.9371429 19.4742857,27.4285714 19.52,25.92 C19.7028571,19.4742857 24.9142857,14.1714286 31.36,13.8514286 C38.5371429,13.4857143 44.48,19.2 44.48,26.2857143 C44.48,32.9142857 39.2685714,38.3542857 32.7314286,38.72 C32.7314286,38.72 30.3085714,38.8571429 29.12,39.04 C28.5257143,39.1314286 28.0685714,39.2228571 27.7485714,39.2685714 C27.6114286,39.3142857 27.4742857,39.1771429 27.52,39.04 L27.9314286,37.0285714 L30.1714286,26.6971429 C30.4457143,25.4171429 29.6228571,24.1371429 28.3428571,23.8628571 C27.0628571,23.5885714 25.7828571,24.4114286 25.5085714,25.6914286 C25.5085714,25.6914286 20.1142857,50.8342857 20.0685714,51.1085714 C19.7942857,52.3885714 20.6171429,53.6685714 21.8971429,53.9428571 C23.1771429,54.2171429 24.4571429,53.3942857 24.7314286,52.1142857 C24.7771429,51.84 25.5085714,48.5028571 25.5085714,48.5028571 C26.0571429,45.9428571 28.16,44.0685714 30.6285714,43.7485714 C31.1771429,43.6571429 33.3257143,43.52 33.3257143,43.52 C42.24,42.8342857 49.28,35.3828571 49.28,26.2857143 C49.28,16.7314286 41.5085714,9.00571429 32,9.00571429 Z" id="路径"></path>
                                    </g>
                                    <path d="M33.2342857,48.7771429 C31.68,48.4571429 30.1257143,49.4171429 29.8057143,51.0171429 C29.4857143,52.5714286 30.4457143,54.1257143 32.0457143,54.4457143 C33.6,54.7657143 35.1542857,53.8057143 35.4742857,52.2057143 C35.7942857,50.6057143 34.8342857,49.0971429 33.2342857,48.7771429 Z" id="路径" fill="#E6007A" fill-rule="nonzero"></path>
                                </g>
                            </g>
                        </g>
                        <g id="编组-46" mask="url(#mask-2)">
                            <g transform="translate(660.000000, 267.000000)">
                                <rect id="矩形备份-8" stroke="#FFFFFF" stroke-width="1" fill-opacity="0.3" fill="#FFFFFF" fill-rule="evenodd" x="0.5" y="0.5" width="99" height="99" rx="12"></rect>
                                <path d="M73.2626508,35.7681746 C72.2839226,34.898194 71.1964469,34.2457085 69.891476,34.0282134 C68.2602624,33.8107182 66.6290488,34.898194 65.5415731,35.659427 C64.4540973,36.42066 62.2791459,38.3781163 61.4091653,39.1393493 C60.5391847,39.9005824 58.3642332,40.3355727 54.7755633,42.5105241 C51.1868934,44.6854756 37.267204,53.6027766 37.267204,53.6027766 L40.8558739,53.6027766 L24.6524854,61.9763398 L26.283699,61.9763398 L24,63.716301 C25.3049709,64.0425437 26.6099418,63.8250485 27.8061651,63.1725631 L27.8061651,63.716301 C27.8061651,63.716301 47.0544856,56.1039708 50.7519031,58.0614271 L48.468204,58.7139126 C48.6856992,58.7139126 52.2743691,58.9314077 52.2743691,58.9314077 C52.4918643,60.4538738 53.3618448,61.8675922 54.6668157,62.6288252 C56.8417672,64.0425437 56.9505148,64.9125243 56.9505148,64.9125243 C56.9505148,64.9125243 55.863039,65.3475146 55.863039,66 C57.9292429,65.3475146 60.1041944,65.3475146 62.0616507,66 C62.0616507,66 61.9529031,65.3475146 60.4304371,64.9125243 C58.9079711,64.2600388 57.6030002,63.2813107 56.624272,61.8675922 C55.7542915,60.6713689 55.4280487,59.1489029 55.9717866,57.7351844 C56.5155245,56.321466 58.3642332,55.5602329 62.1703983,53.6027766 C66.6290488,51.3190776 67.7165245,49.5791164 68.2602624,48.1653979 C68.8040003,46.7516795 69.891476,44.1417377 70.3264663,42.8367668 C70.7614566,41.6405435 71.5226896,40.6618154 72.5014178,39.7918348 C73.6976411,39.1393493 75.002612,38.5956115 76.1988353,38.1606212 C76.4163304,38.2693688 74.0238838,36.3119124 73.2626508,35.7681746 Z" id="路径" stroke="none" fill="#000000" fill-rule="nonzero"></path>
                            </g>
                        </g>
                        <g id="编组-47" mask="url(#mask-2)">
                            <g transform="translate(730.000000, 541.000000)">
                                <rect id="矩形备份-11" stroke="#FFFFFF" fill-opacity="0.3" fill="#FFFFFF" x="0.5" y="0.5" width="99" height="99" rx="12"></rect>
                                <g id="Cosmos" stroke="none" fill="none" transform="translate(24.000000, 24.000000)">
                                    <path d="M43.4422111,4.18409986 C41.1486782,6.47763272 38.6989295,8.92738147 37.9959581,9.62325214 L36.7107276,10.9013819 L36.34149,10.6457559 C35.7166266,10.2339141 35.2905834,9.9924896 34.4384968,9.5806478 C33.7426262,9.24691393 33.3804894,9.09069805 32.4857986,8.74276274 C32.2656762,8.65755409 31.5769062,8.45873392 31.3496832,8.41612957 C31.2360717,8.39482742 31.1153594,8.35932383 31.0798558,8.33802163 C31.0514529,8.31671948 30.8100284,8.25991369 30.5473017,8.20310794 C29.6455101,8.01138846 29.4608914,7.97588487 29.0064453,7.92617982 C28.8502294,7.91197837 28.6443085,7.87647478 28.5519991,7.86227333 C27.8064234,7.69895674 24.7105091,7.69895674 23.7164081,7.85517258 C23.616998,7.86937403 23.3613721,7.90487762 23.1483504,7.92617982 C22.9353288,7.95458272 22.6939043,7.99008631 22.6157964,8.00428776 C22.5376884,8.02558991 22.3601704,8.05399281 22.2252567,8.07529496 C22.090343,8.0965971 21.607494,8.21020864 21.1601486,8.33092093 C20.7128032,8.44453247 20.3151628,8.55104326 20.2725584,8.55814401 C20.2370548,8.57234545 20.1092418,8.61494975 20.0027311,8.65755409 C19.8891195,8.70725914 19.775508,8.74276274 19.7471051,8.74276274 C19.4985799,8.74276274 17.2760542,9.78656873 16.4097662,10.3049213 C15.4866725,10.872979 15.2807516,11.000792 15.0961328,11.1712093 C15.0180249,11.2422165 14.9115141,11.2990223 14.861809,11.2990223 C14.812104,11.2990223 14.7694997,11.3274252 14.7694997,11.3558281 C14.7694997,11.3913317 14.6274852,11.5191446 14.4499672,11.6469576 C13.8819095,12.0516987 12.4830675,13.3866343 11.9292113,14.0399006 C11.3895565,14.6789655 10.3670526,16.0778075 10.3670527,16.1772176 C10.3670527,16.1985198 10.2889447,16.3263327 10.1824339,16.4612464 C10.0830238,16.5890594 10.026218,16.6955702 10.0475202,16.6955703 C10.0759231,16.6955703 10.0333188,16.7807789 9.95521086,16.8943904 C9.72088708,17.2139229 8.90430417,18.9393981 8.84749837,19.2163262 C8.84039768,19.2518298 8.81199478,19.322837 8.79069258,19.3654413 C8.52796591,19.7843839 7.89600172,22.2696362 7.76818879,23.4057516 C7.75398734,23.5619675 7.71848374,23.7820898 7.69718154,23.902802 C7.62617435,24.2720396 7.6119729,27.2898459 7.6758794,27.8081986 C7.80369238,28.8449038 7.81789383,28.9514147 7.86049813,29.1928392 C7.88180027,29.3277529 7.91730387,29.5052709 7.93150537,29.5833789 C7.94570682,29.6614868 7.97410972,29.8035012 7.99541186,29.9029113 C8.00961331,30.0023214 8.04511691,30.1585372 8.07351976,30.2579473 C8.0948219,30.3573574 8.1232248,30.4851704 8.13742625,30.5419762 C8.18003059,30.7834007 8.64867814,32.2745521 8.76939043,32.5656817 C9.16703079,33.5100776 9.28064233,33.779905 9.5646712,34.3408619 C9.92680796,35.0651354 10.53747,36.1160422 10.7220887,36.3290638 C10.7930959,36.4071717 10.8641032,36.5207833 10.8783046,36.577589 C10.8996067,36.6485962 8.99661351,38.5941938 5.45335373,42.1232521 L0,47.5695051 L2.17282062,49.7423257 L4.34564125,51.9151464 L9.80609567,46.4688934 C12.8097007,43.4652884 15.2807516,41.0013382 15.3020537,40.9942375 C15.3162552,40.9800361 15.5647804,41.1220505 15.8488092,41.3066692 C17.077234,42.10195 19.1080402,43.0108423 20.5210837,43.4013819 C20.6986017,43.451087 20.8761198,43.500792 20.9116233,43.5078927 C21.0323355,43.5504971 21.6003932,43.67831 21.9767315,43.7493172 C22.1755517,43.7848208 22.3956741,43.8274252 22.4808827,43.8487273 C22.8501202,43.9268353 23.6596024,44.0191446 24.532991,44.0759504 C25.654905,44.1540583 27.7283155,44.111454 28.3957833,43.9978425 C28.5590999,43.9694396 29.0419489,43.9055331 29.4324885,43.8487273 C29.5105965,43.8416266 29.574503,43.8274252 29.574503,43.8203245 C29.574503,43.8132238 29.6526109,43.7990223 29.752021,43.7848208 C29.9721433,43.7564179 30.185165,43.7067129 30.6041075,43.6002021 C30.7816255,43.5575977 30.9875464,43.5078927 31.0656543,43.500792 C31.1437623,43.4865906 31.2147695,43.4723891 31.2289709,43.4652884 C31.2360716,43.451087 31.2644745,43.4439863 31.2999782,43.4368855 C31.6905178,43.3303747 32.2230719,43.1457559 32.2940791,43.0960509 C32.3366834,43.0534465 32.3792877,43.0392451 32.3792878,43.067648 C32.3792878,43.0960509 32.4715972,43.067648 32.5923094,43.0037416 C32.7059209,42.9469358 32.8195325,42.8972307 32.8408346,42.8972307 C32.8621368,42.8972307 32.9899497,42.8475257 33.1319642,42.7907199 C33.2739786,42.7339142 33.4017916,42.6842091 33.415993,42.6842091 C33.4727987,42.6842091 34.5521084,42.1587557 34.5805112,42.1161514 C34.6018134,42.0877485 34.6941228,42.0380435 34.7793315,42.0096406 C35.0136552,41.9386334 36.1000656,41.2853671 36.8740441,40.752813 C37.0799651,40.6107986 37.7829364,40.0711438 38.1308718,39.7871149 C38.6492244,39.3610717 40.3320953,37.6426972 40.3320953,37.5432871 C40.3320953,37.5290856 40.4173039,37.4225748 40.5309155,37.3089633 C40.6374263,37.1882511 40.822045,36.9539272 40.9356566,36.78351 C41.0492681,36.6130927 41.2693904,36.3006609 41.4185056,36.09474 C41.5676207,35.8959198 41.6599301,35.7255025 41.6315272,35.7255025 C41.6031243,35.7255025 41.610225,35.6970996 41.6528293,35.6686968 C41.8161459,35.5550852 42.654031,33.9787252 42.9735635,33.1834444 C43.0232685,33.0627321 43.087175,32.9562213 43.1084772,32.9562213 C43.1297793,32.9562213 43.1510815,32.913617 43.1510815,32.863912 C43.1581822,32.8213076 43.2859952,32.4094658 43.4422111,31.9621204 C44.1522831,29.9455157 44.4150099,28.3265512 44.4150099,25.9265075 C44.4150099,24.1939316 44.3298012,23.2140321 44.0599738,21.9643052 C44.0386716,21.8790966 44.0102687,21.7370821 43.9889665,21.6447728 C43.9605637,21.5169598 43.8966572,21.232931 43.8398514,21.0057079 C43.8327507,20.977305 43.82565,20.9489022 43.8114486,20.9347007 C43.8043479,20.9276 43.7901464,20.8707942 43.7759449,20.8139884 C43.7404413,20.6151682 43.1581822,18.9393981 43.0800743,18.7902829 C43.0374699,18.712175 42.9948657,18.6127649 42.9877649,18.5701606 C42.9735635,18.4778512 42.2279877,16.9866998 42.0220669,16.624563 C41.8161459,16.2837284 41.5534193,15.8647858 41.3119948,15.5097498 L41.1060738,15.2044188 L46.5807297,9.74396438 L52.0482849,4.2764092 L49.9109679,2.13909218 C48.7393489,0.967473198 47.7381473,0.00887589903 47.6955429,0.00887589903 C47.6458379,0.0159765978 45.7357439,1.89056695 43.4422111,4.18409986 Z M25.6194014,13.4363393 C25.6975093,13.3866342 26.2584663,13.3937349 27.053747,13.4505407 C27.7780205,13.5073465 28.3602797,13.6067566 29.0064453,13.7842747 C29.1626611,13.826879 29.3401791,13.8694833 29.3969849,13.8836847 C29.7165174,13.9617927 30.2561722,14.1677136 30.2916758,14.2174186 C30.3129779,14.2529222 30.3768844,14.2813251 30.4407909,14.2813251 C30.5757046,14.2813251 31.9319423,14.9558936 32.1733668,15.1405124 L32.3437841,15.2754261 L24.000437,23.6116725 C19.4133712,28.205839 15.6215862,31.9550197 15.5789819,31.9621204 C15.5292768,31.9621204 15.4085646,31.7490988 15.2949531,31.4792714 C15.1884422,31.2165447 15.0748307,30.9680195 15.0464278,30.9325159 C14.9967227,30.8544079 14.6274852,29.7040911 14.4996723,29.2283428 C14.0807297,27.6803856 13.9955211,25.8057952 14.2369456,23.7962913 C14.27955,23.4696581 14.3363557,23.1643271 14.5138737,22.4471543 C14.6061831,22.070816 14.8050033,21.4672548 14.989622,20.9915065 C15.2026437,20.4376502 15.8772121,19.0388082 15.9695215,18.967801 C15.9908237,18.9464988 16.0547302,18.8541894 16.1044352,18.7547793 C16.2677518,18.4352469 16.9991261,17.4979517 17.4677737,17.0009012 C18.2346515,16.191419 19.1435438,15.4742462 20.0595368,14.9558936 C20.4074721,14.7570734 21.0891413,14.4020373 21.1601486,14.3878359 C21.1814507,14.3807352 21.2950623,14.3381308 21.4086738,14.2884258 C21.8418178,14.1038071 22.2039546,13.9759941 22.6868036,13.8481811 C23.5246886,13.6138573 23.7874153,13.5641523 24.738912,13.4718429 C24.9732357,13.44344 25.1791567,13.4150371 25.1933581,13.393735 C25.2075596,13.3795336 25.2927682,13.393735 25.3779768,13.4292386 C25.4702862,13.4576415 25.576797,13.4647422 25.6194014,13.4363393 Z M36.5687131,19.9050961 C36.5687131,19.9477005 36.6681232,20.1891249 36.7888355,20.4447509 C37.0515622,21.0057079 37.5202098,22.4045499 37.6338213,22.9513054 C37.8113393,23.8459963 37.81844,23.8957014 37.8894472,24.6483778 C37.9888573,25.6282773 37.946253,27.4034575 37.8042386,27.9857166 C37.7829364,28.0851267 37.7616342,28.2129397 37.7616342,28.2697454 C37.7616342,28.3265512 37.7119292,28.5821772 37.6551235,28.8378031 C37.5983177,29.0934291 37.5344112,29.3703572 37.5202097,29.4626666 C37.4705047,29.7040911 37.1438715,30.6768899 37.0231593,30.9467173 C36.9663535,31.0674295 36.9237492,31.2165447 36.9237492,31.2733504 C36.9237492,31.3301562 36.8740441,31.4153649 36.8172383,31.4650699 C36.7604326,31.514775 36.7107275,31.5928829 36.7107276,31.6425879 C36.7107276,31.8485089 35.9296482,33.1834444 35.4041949,33.8793151 C34.8148351,34.6674951 33.9059428,35.5905888 33.3023815,36.0095313 C33.1674678,36.1089414 33.0254533,36.222553 32.982849,36.2651573 C32.8550361,36.400071 31.9461438,36.9397258 31.3212803,37.2521575 C30.2703736,37.7705101 29.2407691,38.1113448 28.3318768,38.2462584 C28.1898624,38.2675606 27.9981429,38.3030642 27.9058335,38.3243664 C27.4726895,38.409575 25.4915884,38.4947837 25.4915884,38.4237765 C25.4915884,38.4024743 25.2785668,38.3811721 25.0087393,38.3740714 C24.483286,38.35987 24.0643434,38.3101649 23.5743937,38.2036542 C23.3968757,38.1610498 23.1909548,38.1184455 23.1128468,38.0971433 C23.0276382,38.0829419 22.7720122,38.0048339 22.5447891,37.926726 C22.3104654,37.8486181 22.0690408,37.7705101 22.0122351,37.749208 C21.5080839,37.6142943 19.7400044,36.7125028 19.7400044,36.5917905 C19.7400044,36.527884 36.4480009,19.8269882 36.5190081,19.8198875 C36.547411,19.8198875 36.5687131,19.8553911 36.5687131,19.9050961 L36.5687131,19.9050961 Z" id="形状" fill="#000000" fill-rule="nonzero"></path>
                                </g>
                            </g>
                        </g>
                        <g id="编组-44" mask="url(#mask-2)">
                            <g transform="translate(1177.000000, 367.000000)">
                                <rect id="矩形备份-6" stroke="#FFFFFF" fill-opacity="0.3" fill="#FFFFFF" x="0.5" y="0.5" width="99" height="99" rx="12"></rect>
                                <g id="eos" stroke="none" fill="none" transform="translate(29.000000, 21.000000)">
                                    <path d="M31.4853034,28.6166522 L32.9733725,24.1254591 L35.6719434,35.5365591 L31.4853034,28.6166522 L31.4853034,28.6166522 Z M25.4790555,46.785745 L33.8908866,46.785745 L23.4744028,52.8613847 L25.4790555,46.785745 Z M15.8605776,46.785745 L17.853665,52.8883704 L7.32923824,46.785745 L15.8605776,46.785745 Z M19.0371811,13.3427406 L12.0633027,24.8772039 L9.98925818,18.5317071 L19.0371811,6.2532092 L19.0371811,13.3465957 L19.0371811,13.3427406 Z M22.2523356,13.3427406 L22.2523356,6.38042756 L31.4544625,18.5239968 L29.3071711,25.0159876 L22.2523356,13.3427406 Z M14.8621063,43.7286495 L4.37623061,43.7286495 L11.1804845,32.4717535 L14.8621063,43.7286495 L14.8621063,43.7286495 Z M22.1096968,46.785745 L20.6601787,51.1767054 L19.226081,46.785745 L22.1096968,46.785745 Z M30.1745689,32.5796964 L36.9171412,43.7286495 L26.4929471,43.7286495 L30.1745689,32.5796964 Z M23.1274436,43.7286495 L18.2314649,43.7286495 L13.3701821,28.8556685 L20.6486134,16.8161869 L28.0002917,28.9790317 L23.1274436,43.7286495 Z M8.44721761,24.0907632 L9.88517044,28.4894339 L5.64455891,35.5057183 L8.44721761,24.0907632 L8.44721761,24.0907632 Z M41.092216,44.4958147 L41.0845058,44.4842494 L34.8006906,17.9187459 L34.781415,17.8724847 C34.7559949,17.7737246 34.7197966,17.6780576 34.6734722,17.5872072 C34.6466947,17.5367474 34.6170919,17.4878385 34.5848048,17.4407134 C34.5655294,17.4137277 34.5539641,17.3828869 34.5346885,17.3597563 L22.1598132,1.02183665 C21.9185642,0.399359493 21.3161559,-0.00788081248 20.6486134,0.000115674358 L20.5984971,0.00408987166 L20.5522359,0.000115674358 C20.0381377,-0.00128644991 19.5535709,0.240282217 19.2453565,0.651746938 L6.90903219,17.3905971 L6.85891586,17.4754093 C6.83121337,17.5165694 6.80548363,17.5590234 6.78181383,17.6026276 L6.72784242,17.7337011 L6.67387101,17.8763398 L6.6623057,17.922601 L0.0315313441,44.9083106 L0.0315313441,44.9931228 C0.00746502121,45.1058305 -0.00289033602,45.221034 0.000690555812,45.3362268 C0.00454563835,45.3901982 0.01611095,45.4403146 0.023821115,45.4904309 C0.0479840291,45.6405442 0.0947775052,45.7861239 0.16260479,45.9222023 C0.181880267,45.9568982 0.189590496,45.9915941 0.208866037,46.0224348 C0.239706825,46.0725512 0.282112989,46.1111022 0.31680886,46.1573634 L0.420896601,46.2884369 C0.50473677,46.373147 0.597845302,46.4481511 0.698463887,46.5120328 C0.721594511,46.5274532 0.737014905,46.5505838 0.764000611,46.5660042 L19.8236217,57.6031594 C19.8891585,57.6417104 19.9585503,57.6609859 20.0279421,57.6918267 C20.0819135,57.7111022 20.1281748,57.738088 20.1821461,57.7535083 C20.33221,57.7992473 20.4879047,57.823899 20.6447584,57.8267552 L20.6563237,57.8267552 C20.8157526,57.8244648 20.974071,57.7998086 21.126646,57.7535083 C21.1806174,57.7380879 21.2268786,57.7149573 21.28085,57.6918267 C21.354097,57.6609859 21.4273439,57.6417104 21.4967358,57.6031594 L40.1862672,46.7086429 C40.5611236,46.5986323 40.8822872,46.3543283 41.0883608,46.0224348 C41.3744642,45.5537754 41.3744642,44.9644742 41.0883608,44.4958147 L41.092216,44.4958147 Z" id="形状" fill="#000000" fill-rule="nonzero"></path>
                                </g>
                            </g>
                        </g>
                        <g id="编组-37" mask="url(#mask-2)">
                            <g transform="translate(780.003615, 277.000000)">
                                <g id="矩形备份-4" fill="none">
                                    <use fill="black" fill-opacity="1" filter="url(#filter-4)" xlink:href="#path-3"></use>
                                    <use fill="#FFFFFF" fill-rule="evenodd" xlink:href="#path-3"></use>
                                </g>
                                <g id="Path-11" fill="none" stroke-linecap="round">
                                    <use fill="black" fill-opacity="1" filter="url(#filter-7)" xlink:href="#path-6"></use>
                                    <use stroke="url(#linearGradient-5)" stroke-width="7" xlink:href="#path-6"></use>
                                </g>
                                <g id="椭圆形" fill="none" stroke-linecap="round">
                                    <use fill="black" fill-opacity="1" filter="url(#filter-9)" xlink:href="#path-8"></use>
                                    <use stroke="#FFFFFF" stroke-width="7" fill="#FFDB1B" fill-rule="evenodd" xlink:href="#path-8"></use>
                                </g>
                                <circle id="椭圆形" fill="#FFDB1B" fill-rule="evenodd" opacity="0.200000003" cx="211" cy="118" r="78"></circle>
                                <g filter="url(#filter-10)" fill="none" fill-rule="evenodd" id="货币资金" stroke-width="1">
                                    <g transform="translate(171.000000, 78.000000)">
                                        <path d="M39.9302564,0.00534190705 C17.8776068,0.00534190705 0,17.8829487 0,39.9355983 C0,61.9882479 17.8776068,79.8658547 39.9302564,79.8658547 C61.982906,79.8658547 79.8605128,61.9882479 79.8605128,39.9355983 C79.8605128,17.8829487 61.982906,0.00534190705 39.9302564,0.00534190705 Z M49.1938462,53.8802137 C47.52,55.7400428 45.345641,56.8887607 42.6694017,57.3263675 L42.6694017,61.742094 C42.6761512,61.9586762 42.59415,62.1686191 42.4423932,62.3232906 C42.2878101,62.4751841 42.0778064,62.5572091 41.8611966,62.5507029 L38.4547009,62.5507029 C38.2358974,62.5507029 38.045812,62.4682478 37.8871795,62.3096154 C37.728547,62.1509829 37.6478632,61.962265 37.6478632,61.742094 L37.6478632,57.3263675 C36.550566,57.1781054 35.4716964,56.9159502 34.4287179,56.5441453 C33.3948718,56.173547 32.5415385,55.8002136 31.8673504,55.4214103 C31.1931623,55.0426069 30.5723077,54.6391881 29.9993163,54.2097863 C29.5918447,53.9151861 29.2001899,53.599306 28.8259829,53.2634615 C28.6715408,53.1193038 28.5241334,52.9677892 28.3842735,52.8094445 C28.099829,52.4552564 28.0806837,52.1092736 28.3336752,51.7742308 L30.9333333,48.3663675 C31.0509401,48.1981624 31.2437607,48.0969659 31.5131624,48.0641453 C31.7415741,48.0215913 31.974774,48.1089755 32.1189744,48.2911538 L32.1695727,48.3417522 C34.0704274,50.0073932 36.1148718,51.0590171 38.302906,51.496624 C38.9264958,51.630641 39.5473505,51.6976496 40.1709401,51.6976496 C41.5329914,51.6976496 42.7323077,51.336624 43.7675214,50.6118376 C44.8027351,49.8884187 45.3196582,48.8641453 45.3196581,47.533547 C45.3196581,47.0603846 45.1938462,46.6173077 44.9422222,46.1947436 C44.7121419,45.8032153 44.4275876,45.4463713 44.097094,45.1349145 C43.7852991,44.85047 43.294359,44.5359401 42.6201709,44.1899573 C42.0725557,43.905169 41.5171274,43.6356632 40.9545299,43.3817522 C40.2879984,43.0930248 39.6150049,42.8194502 38.9360683,42.5612393 C38.4191453,42.347906 37.9022222,42.1373077 37.3839317,41.9294445 C36.8619134,41.7174647 36.3444196,41.4945092 35.8317949,41.2607265 C35.1753846,40.9653419 34.6502564,40.7055128 34.2550427,40.4798718 C33.8584615,40.2514958 33.3839316,39.953376 32.8287179,39.5827778 C32.3454865,39.2694769 31.893493,38.9104465 31.4789744,38.510641 C31.0912743,38.1183229 30.7247166,37.7056602 30.3808547,37.2744017 C30.0155166,36.8303017 29.714026,36.3373302 29.4851282,35.8097863 C29.2609988,35.2665288 29.0834926,34.7051885 28.9545299,34.1318376 C28.8086704,33.4856676 28.7366423,32.825027 28.7398291,32.1626068 C28.7398291,29.8405555 29.565812,27.8029487 31.2136752,26.0552564 C32.862906,24.3061966 35.0071795,23.1779914 37.6505983,22.673376 L37.6505983,18.1304701 C37.6505983,17.9102992 37.7312821,17.7215812 37.8899145,17.5629487 C38.048547,17.4043162 38.2386325,17.322265 38.4588034,17.322265 L41.8652991,17.322265 C42.1005128,17.322265 42.2933333,17.3988462 42.4464958,17.550641 C42.5969231,17.7010683 42.6735043,17.896624 42.6735042,18.1304701 L42.6735042,22.573547 C43.6201948,22.6719331 44.5544465,22.8662061 45.4618804,23.153376 C46.3630769,23.4378205 47.0947009,23.7222649 47.6567522,23.9998718 C48.2147009,24.273376 48.7507692,24.590641 49.2608547,24.9461966 C49.7654701,25.2990171 50.0936752,25.5451709 50.2454701,25.6778205 C50.3753846,25.7913248 50.5011966,25.9089317 50.622906,26.0320086 C50.9087179,26.3342308 50.9511111,26.6555983 50.7500855,26.990641 L48.705641,30.6761111 C48.571624,30.9277351 48.3774359,31.0617522 48.1244445,31.0795299 C47.8823908,31.1284181 47.6312966,31.0633756 47.4434188,30.9031196 C47.3256686,30.7967085 47.2033901,30.695418 47.0769231,30.5995299 C46.8813675,30.4491026 46.5531624,30.2261966 46.0923077,29.9308119 C45.6181143,29.6295538 45.1247573,29.3595779 44.6153846,29.1226068 C44.0929914,28.8778205 43.4666667,28.6617521 42.7350427,28.4675641 C42.0034187,28.2733761 41.282735,28.1776496 40.577094,28.1776496 C38.979829,28.1776496 37.6738462,28.5386752 36.6646154,29.262094 C35.6553846,29.9868803 35.1507692,30.9208974 35.1507692,32.0641453 C35.1507692,32.5003846 35.2218804,32.9051709 35.3654701,33.2757692 C35.5090599,33.6463675 35.7565812,33.9950855 36.1094017,34.3232906 C36.4622222,34.6514958 36.7958974,34.9291026 37.1063248,35.1561111 C37.4167521,35.3844872 37.888547,35.6429487 38.5203419,35.9397009 C39.1507692,36.2337179 39.6608547,36.4620941 40.0478632,36.6207265 C40.4335042,36.779359 41.0242735,37.0118377 41.8147009,37.3140599 C42.7063248,37.6504701 43.3873505,37.9144018 43.8591453,38.1099573 C44.3323077,38.3041454 44.9709401,38.5967949 45.7777778,38.993376 C46.5846154,39.3899572 47.2205128,39.7455128 47.682735,40.0668804 C48.1449572,40.3882479 48.6673504,40.8053419 49.248547,41.327735 C49.8297436,41.8514957 50.2769231,42.3834615 50.5873504,42.9318376 C50.8977777,43.4802136 51.1630769,44.1229487 51.3818804,44.8614103 C51.6020513,45.6012393 51.7100855,46.3944017 51.7100855,47.2340599 C51.7059829,49.805 50.8663248,52.0203846 49.1938462,53.8802137 L49.1938462,53.8802137 Z" id="形状" fill="#000000" fill-rule="nonzero"></path>
                                    </g>
                                </g>
                                <text id="7000000-$" fill="none" font-family="DINPro-Bold, DINPro" font-size="36" font-weight="bold" line-spacing="40">
                                    <tspan x="126" y="243" fill="#242629">7000000 $</tspan>
                                </text>
                                <text id="TVL-of-Nutbox" fill="none" font-family="Avenir-Heavy, Avenir" font-size="20" font-weight="600" line-spacing="24">
                                    <tspan x="142" y="274" fill="#242629">TVL of Nutbox</tspan>
                                </text>
                            </g>
                        </g>
                        <g id="编组-43" mask="url(#mask-2)">
                            <g transform="translate(1220.000000, 539.000000)">
                                <rect id="矩形备份-12" stroke="#FFFFFF" fill-opacity="0.3" fill="#FFFFFF" x="0.5" y="0.5" width="99" height="99" rx="12"></rect>
                                <g id="ETH" stroke="none" fill="none" transform="translate(33.000000, 22.000000)">
                                    <path d="M17.1171875,0 L34.2289063,28.4375 L17.1171875,38.609375 L0.00546875,28.4375 L17.1171875,0 Z M17.1171875,56 L34.2289063,31.80625 L17.1171875,41.978125 L0.00546875,31.80625 L17.1171875,56 Z" id="形状" fill="#000000" fill-rule="nonzero"></path>
                                </g>
                            </g>
                        </g>
                    </g>
                </g>
            </g>
        </g>
    </g>
</svg>