<?xml version="1.0" encoding="UTF-8"?>
<svg width="40px" height="40px" viewBox="0 0 40 40" version="1.1" xmlns="http://www.w3.org/2000/svg" xmlns:xlink="http://www.w3.org/1999/xlink">
    <title>telegram</title>
    <g id="页面-1" stroke="none" stroke-width="1" fill="none" fill-rule="evenodd">
        <g id="telegram" fill="#FFFFFF" fill-rule="nonzero">
            <path d="M26.54,29.1743226 L29.8214194,13.7056774 C30.1114839,12.3442839 29.3299355,11.8085677 28.4371613,12.1428516 L9.15143226,19.5757419 C7.83428387,20.0885161 7.85714839,20.8256774 8.92856774,21.16 L13.8614194,22.7 L25.3129032,15.4900645 C25.8485161,15.1329032 26.34,15.3343226 25.9385806,15.6914839 L16.6757419,24.0614194 L16.3185806,29.1514839 C16.8314839,29.1514839 17.0557419,28.9285161 17.3228387,28.66 L19.7329032,26.3385806 L24.7329032,30.0214194 C25.6485161,30.5343226 26.2957419,30.2670968 26.5414194,29.1729032 L26.54,29.1743226 Z M40,20 C40,31.0485161 31.0485161,40 20,40 C8.95143226,40 0,31.0485161 0,20 C0,8.95143226 8.95143226,0 20,0 C31.0485161,0 40,8.95143226 40,20 Z" id="形状"></path>
        </g>
    </g>
</svg>