<svg width="31" height="31" viewBox="0 0 31 31" fill="none" xmlns="http://www.w3.org/2000/svg">
<path d="M20.5685 22.6101L23.1116 10.6219C23.3364 9.56682 22.7307 9.15164 22.0388 9.41071L7.09236 15.1712C6.07157 15.5686 6.08929 16.1399 6.91964 16.399L10.7426 17.5925L19.6175 12.0048C20.0326 11.728 20.4135 11.8841 20.1024 12.1609L12.9237 18.6476L12.6469 22.5924C13.0444 22.5924 13.2182 22.4196 13.4252 22.2115L15.293 20.4124L19.168 23.2666C19.8776 23.6641 20.3792 23.457 20.5696 22.609L20.5685 22.6101ZM31 15.5C31 24.0626 24.0626 31 15.5 31C6.93736 31 0 24.0626 0 15.5C0 6.93736 6.93736 0 15.5 0C24.0626 0 31 6.93736 31 15.5Z" fill="white"/>
</svg>
