<?xml version="1.0" encoding="UTF-8"?>
<svg width="40px" height="40px" viewBox="0 0 40 40" version="1.1" xmlns="http://www.w3.org/2000/svg" xmlns:xlink="http://www.w3.org/1999/xlink">
    <title>TW</title>
    <g id="管网" stroke="none" stroke-width="1" fill="none" fill-rule="evenodd">
        <g id="About-Us" transform="translate(-1136.000000, -4197.000000)">
            <g id="编组-34" transform="translate(0.000000, 4029.000000)">
                <g id="GitHub" transform="translate(1136.000000, 168.000000)">
                    <rect id="矩形备份-7" stroke="#FFFFFF" opacity="0.5" x="0.5" y="0.5" width="39" height="39" rx="19.5"></rect>
                    <g id="Logo-GitHub" transform="translate(12.000000, 12.000000)"></g>
                    <g id="tw" transform="translate(12.000000, 13.000000)" fill="#FFFFFF" fill-rule="nonzero">
                        <path d="M14.6677973,3.98864503 C14.6677973,3.83443813 14.6647736,3.6832549 14.6587263,3.53509533 C15.3148615,3.04828532 15.8802868,2.43750506 16.3308128,1.73601486 C15.7291036,2.00512101 15.085063,2.18654089 14.4047384,2.26213251 C15.0971577,1.83579579 15.626299,1.15547124 15.8772631,0.336058118 C15.2301989,0.729134524 14.5135904,1.01033534 13.7486032,1.15547124 C13.137823,0.460028369 12.2670075,0.0185733289 11.3024585,0.000431340917 C9.45197573,-0.0298053057 7.95223806,1.53342932 7.95223806,3.49276402 C7.95223806,3.77094117 7.98247471,4.04004733 8.03992433,4.30310615 C5.25512918,4.12470994 2.78479515,2.6733509 1.13387425,0.487241351 C0.846626105,1.01033534 0.680324549,1.62413926 0.680324549,2.2802745 C0.680324549,3.51997701 1.27296282,4.62361461 2.17099123,5.27370251 C1.62068426,5.24951319 1.10666127,5.08321164 0.653111567,4.80805815 L0.653111567,4.85341312 C0.653111567,6.58899664 1.80815147,8.04035567 3.34114945,8.37900612 C3.05994864,8.4576214 2.7636295,8.4999527 2.45823937,8.4999527 C2.24053551,8.4999527 2.03190265,8.47576339 1.82931712,8.43040842 C2.25565384,9.85153081 3.49233268,10.8886478 4.95881004,10.9249318 C3.81284114,11.8773861 2.36752943,12.4428114 0.798247471,12.4397878 C0.529141316,12.4397878 0.260035161,12.4216458 0,12.3883855 C1.48461935,13.4073604 3.24439218,14 5.13720626,14 C11.2964112,14.0030224 14.6677973,8.64206494 14.6677973,3.98864503 L14.6677973,3.98864503 Z" id="路径"></path>
                    </g>
                </g>
            </g>
        </g>
    </g>
</svg>