<svg width="35" height="28" viewBox="0 0 35 28" fill="none" xmlns="http://www.w3.org/2000/svg">
<path d="M2.09477 1.36106C4.48586 3.97278 6.88312 5.82516 9.29272 6.9222C11.7453 8.0287 14.4013 8.647 17.1039 8.74061C16.8467 7.39179 16.8467 6.16286 17.1039 5.05183C17.4907 3.38329 19.034 1.36106 21.5465 0.381919C22.6165 -0.0357158 24.7669 -0.209564 26.6168 0.381919C27.3967 0.629702 28.2732 1.2012 29.2466 2.09842C29.903 2.06045 30.5903 1.92857 31.3063 1.70076C32.0224 1.47296 32.9073 1.03335 33.9588 0.381919C33.4958 1.62483 32.9875 2.50806 32.4319 3.0336C31.8763 3.55714 31.259 3.99276 30.5738 4.34046C31.3784 4.35844 32.2159 4.22855 33.0842 3.95279C33.9526 3.67504 34.5864 3.43924 34.9815 3.23942C34.0452 4.4004 33.3312 5.18172 32.8414 5.58337C32.3517 5.98302 31.8393 6.42863 31.3063 6.9202C31.3825 8.78057 31.187 10.6569 30.7178 12.5453C30.012 15.3808 28.8988 19.3253 25.7772 22.4726C22.6536 25.6178 18.0504 27.742 12.4225 27.9578C6.79463 28.1736 2.75736 26.3452 1.93427 26.0275C1.26571 25.7575 0.61911 25.4389 0 25.0743C2.91169 25.0883 5.06202 24.8305 6.45305 24.301C7.92715 23.724 9.30288 22.9337 10.5335 21.957C8.66717 21.8172 7.20001 21.3416 6.12999 20.5243C5.05997 19.709 4.2842 18.608 3.80475 17.2252H6.92839C7.10535 17.1213 6.83785 16.9115 6.12999 16.5937C5.06408 16.1162 3.10512 15.3428 2.09683 13.5064C1.41984 12.2835 1.08443 11.1025 1.08443 9.96753C1.98365 10.3672 2.63184 10.607 3.02487 10.6909C3.41995 10.7728 3.81915 10.8308 4.22453 10.8608V10.4331C2.55982 9.2022 1.58651 7.81142 1.3046 6.25678C1.02064 4.70214 1.28403 3.06957 2.09477 1.36106V1.36106Z" fill="white"/>
</svg>
