<?xml version="1.0" encoding="UTF-8"?>
<svg width="40px" height="40px" viewBox="0 0 40 40" version="1.1" xmlns="http://www.w3.org/2000/svg" xmlns:xlink="http://www.w3.org/1999/xlink">
    <title>twitter</title>
    <g id="页面-1" stroke="none" stroke-width="1" fill="none" fill-rule="evenodd">
        <g id="twitter">
            <path d="M2.39528894,5.55621471 C5.1294084,8.54261609 7.87058302,10.6607414 10.625868,11.9151644 C13.4302989,13.1804046 16.4673327,13.8874069 19.5576519,13.9944463 C19.2635536,12.4521225 19.2635536,11.0468883 19.5576519,9.77646827 C19.9999428,7.86855694 21.764647,5.55621471 24.6375942,4.43660463 C25.861098,3.95905529 28.3199977,3.76026656 30.4352872,4.43660463 C31.3270729,4.71993496 32.3293169,5.37342094 33.4423624,6.39935751 C34.1929305,6.35594028 34.9788317,6.20514057 35.7975501,5.94464859 C36.6163829,5.68416805 37.6282321,5.18149092 38.8305819,4.43660463 C38.3011592,5.85782556 37.7199377,6.8677651 37.0846304,7.46869988 C36.4493232,8.06734773 35.7434644,8.56546245 34.9599646,8.96304403 C35.8799937,8.98360347 36.8376428,8.83507925 37.8305104,8.51975829 C38.8234924,8.20216185 39.5482183,7.93253362 40,7.70404713 C38.929377,9.03158312 38.1129454,9.92499249 37.5528779,10.3842638 C36.9929248,10.8412482 36.4070151,11.3507861 35.7975501,11.9128775 C35.8846819,14.0401391 35.6611352,16.1856503 35.124623,18.344963 C34.3175679,21.5872483 33.0446665,26.0976323 29.4752369,29.6964488 C25.9035204,33.2928641 20.6399383,35.7218051 14.204651,35.9685641 C7.76939811,36.2153231 3.15293512,34.124618 2.21176336,33.7613403 C1.44729071,33.4526057 0.707928476,33.0882988 0,32.6713927 C3.32940554,32.6874012 5.7882252,32.3926168 7.37881452,31.7871539 C9.06439118,31.1273766 10.6374855,30.2236989 12.0446522,29.1068801 C9.91057559,28.9470241 8.23293455,28.4031938 7.00940783,27.4686427 C5.78588111,26.5363785 4.89881795,25.2774273 4.35058531,23.6962487 L7.92234753,23.6962487 C8.12469448,23.5774431 7.81881852,23.3375448 7.00940783,22.9741528 C5.79058074,22.4281499 3.55058531,21.5437967 2.39764447,19.4439439 C1.62353244,18.0456048 1.240004,16.6951767 1.240004,15.3973822 C2.26822749,15.8543895 3.00940783,16.1285915 3.45882252,16.224528 C3.91058131,16.3181775 4.36705116,16.3844982 4.8305876,16.4188021 L4.8305876,15.9297436 C2.92705573,14.5222568 1.81411317,12.9319533 1.49175993,11.1542823 C1.16706259,9.3766112 1.46823893,7.50983019 2.39528894,5.55621471 L2.39528894,5.55621471 Z" id="路径" fill="#FFFFFF" fill-rule="nonzero"></path>
            <rect id="矩形" x="0" y="0" width="40" height="40"></rect>
        </g>
    </g>
</svg>