<?xml version="1.0" encoding="UTF-8"?>
<svg width="28px" height="28px" viewBox="0 0 28 28" version="1.1" xmlns="http://www.w3.org/2000/svg" xmlns:xlink="http://www.w3.org/1999/xlink">
    <title>美国</title>
    <g id="管网" stroke="none" stroke-width="1" fill="none" fill-rule="evenodd">
        <g id="About-Us" transform="translate(-1214.000000, -3136.000000)" fill-rule="nonzero">
            <g id="编组-8" transform="translate(0.000000, 2729.000000)">
                <g id="编组-5" transform="translate(236.000000, 119.000000)">
                    <g id="编组-10备份-2" transform="translate(974.000000, 284.000000)">
                        <g id="美国" transform="translate(4.000000, 4.000000)">
                            <g transform="translate(0.000000, 0.000000)">
                                <path d="M0.415217391,10.6728261 C1.74227615,5.19204491 6.24640038,1.05436187 11.819849,0.19603897 C17.3932975,-0.662283926 22.9336249,1.92853228 25.8481904,6.75609433 C28.7627559,11.5836564 28.4750493,17.6930574 25.1197052,22.2253541 C21.7643612,26.7576509 16.0050772,28.8163408 10.5369565,27.4380435 C6.96842598,26.5622416 3.89529248,24.3019763 1.99618315,21.1563726 C0.0970738283,18.0107688 -0.47178787,14.2385884 0.415217391,10.6728261" id="路径" fill="#F7F8F8"></path>
                                <path d="M26.676087,8.77717391 L15.9456522,8.77717391 L15.9456522,10.8467391 L27.3543478,10.8467391 C27.1809555,10.140715 26.9542171,9.44887219 26.676087,8.77717391 M23.9282609,4.48152174 L15.9456522,4.48152174 L15.9456522,6.60326087 L25.5804348,6.60326087 C25.0995113,5.84432623 24.5462028,5.13376169 23.9282609,4.48152174 M3.85869565,23.6119565 L23.876087,23.6119565 C24.5174553,22.9575804 25.0994509,22.2475458 25.6152174,21.4902174 L2.18913043,21.4902174 C2.69357232,22.2559495 3.27642957,22.9670354 3.92826087,23.6119565 M17.1804348,0.551086957 C16.7804348,0.44673913 16.3630435,0.359782609 15.9456522,0.290217391 L15.9456522,2.35978261 L21.3891304,2.35978261 C20.0972526,1.541257 18.6732793,0.952838277 17.1804348,0.620652174 M27.6152174,13.0380435 L15.9456522,13.0380435 L15.9456522,15.1597826 L27.6673913,15.1597826 C27.7281813,14.4538425 27.7281813,13.7439836 27.6673913,13.0380435 M1.07608696,19.3336957 L26.6413043,19.3336957 C26.9186188,18.6812699 27.1397119,18.0063541 27.3021739,17.3163043 L27.3021739,17.2119565 L0.380434783,17.2119565 C0.549204324,17.9383591 0.781998448,18.6483812 1.07608696,19.3336957 M10.5369565,27.4380435 C11.3378216,27.6710856 12.1588271,27.8282994 12.9891304,27.9076087 L14.7282609,27.9076087 C17.0477315,27.7691049 19.2930351,27.0386328 21.25,25.7858696 L6.4326087,25.7858696 C7.69678894,26.5854113 9.08319449,27.1728713 10.5369565,27.525" id="形状" fill="#E72D14"></path>
                                <path d="M14.8847826,14.3076087 L14.5891304,14.098913 L14.2934783,14.3076087 L14.3978261,13.9597826 L14.1021739,13.751087 L14.4673913,13.751087 L14.5891304,13.3858696 L14.7108696,13.751087 L15.076087,13.751087 L14.7804348,13.9597826 L14.8847826,14.3076087 Z M13.423913,3.1423913 L13.5282609,3.55978261 L13.2326087,3.33369565 L12.9369565,3.55978261 L13.0413043,3.19456522 L12.7456522,2.98586957 L13.1108696,2.98586957 L13.2326087,2.62065217 L13.3543478,2.98586957 L13.7195652,2.98586957 L13.423913,3.1423913 Z M13.423913,6.3423913 L13.5282609,6.69021739 L13.2326087,6.46413043 L12.9369565,6.69021739 L13.0413043,6.3423913 L12.7456522,6.11630435 L13.1108696,6.11630435 L13.2326087,5.76847826 L13.3543478,6.11630435 L13.7195652,6.11630435 L13.423913,6.3423913 Z M13.423913,9.45543478 L13.5456522,9.82065217 L13.2326087,9.59456522 L12.9369565,9.82065217 L13.0586957,9.45543478 L12.7456522,9.24673913 L13.1282609,9.24673913 L13.2326087,8.89891304 L13.3543478,9.24673913 L13.6847826,9.24673913 L13.423913,9.45543478 Z M13.423913,12.9336957 L13.1282609,12.725 L12.8326087,12.9336957 L12.9369565,12.5858696 L12.6934783,12.2554348 L13.0586957,12.2554348 L13.1804348,11.9076087 L13.2847826,12.2554348 L13.6673913,12.2554348 L13.3543478,12.4815217 L13.423913,12.9336957 Z M11.9978261,4.69021739 L12.1195652,5.03804348 L11.823913,4.82934783 L11.5108696,5.03804348 L11.6326087,4.69021739 L11.3369565,4.48152174 L11.7021739,4.48152174 L11.823913,4.11630435 L11.9282609,4.48152174 L12.3108696,4.48152174 L11.9978261,4.69021739 Z M11.9978261,7.78586957 L12.1195652,8.13369565 L11.823913,7.925 L11.5108696,8.13369565 L11.6326087,7.78586957 L11.3369565,7.55978261 L11.7021739,7.55978261 L11.823913,7.21195652 L11.9282609,7.55978261 L12.3108696,7.55978261 L11.9978261,7.78586957 Z M11.9978261,10.951087 L12.1195652,11.298913 L11.823913,11.0728261 L11.5108696,11.298913 L11.6326087,10.951087 L11.3369565,10.725 L11.7021739,10.725 L11.823913,10.3771739 L11.9282609,10.725 L12.3108696,10.725 L11.9978261,10.951087 Z M12.1195652,14.3076087 L11.823913,14.098913 L11.5108696,14.3076087 L11.6326087,13.9597826 L11.3369565,13.751087 L11.7021739,13.751087 L11.823913,13.3858696 L11.9282609,13.751087 L12.3108696,13.751087 L11.9978261,13.9945652 L12.1195652,14.3076087 Z M10.6413043,3.1423913 L10.7630435,3.55978261 L10.4673913,3.33369565 L10.1543478,3.55978261 L10.276087,3.19456522 L9.98043478,2.98586957 L10.3804348,2.98586957 L10.5021739,2.62065217 L10.6065217,2.98586957 L10.9891304,2.98586957 L10.6413043,3.1423913 Z M10.6413043,6.3423913 L10.7630435,6.69021739 L10.4673913,6.46413043 L10.1543478,6.69021739 L10.276087,6.3423913 L9.98043478,6.11630435 L10.3804348,6.11630435 L10.5021739,5.76847826 L10.6065217,6.11630435 L10.9891304,6.11630435 L10.6413043,6.3423913 Z M10.6413043,9.45543478 L10.7456522,9.82065217 L10.3804348,9.59456522 L10.0847826,9.82065217 L10.1891304,9.45543478 L9.89347826,9.24673913 L10.3804348,9.24673913 L10.3804348,8.89891304 L10.5021739,9.24673913 L10.8673913,9.24673913 L10.6413043,9.45543478 Z M10.6413043,12.9336957 L10.3804348,12.6902174 L10.0673913,12.898913 L10.1891304,12.551087 L9.92826087,12.2554348 L10.3804348,12.2554348 L10.3804348,11.9771739 L10.4847826,12.325 L10.85,12.325 L10.5543478,12.551087 L10.6413043,12.9336957 Z M9.16304348,1.62934783 L9.28478261,1.99456522 L9.04130435,1.82065217 L8.74565217,2.04673913 L8.8673913,1.68152174 L8.64130435,1.38586957 L9.00652174,1.38586957 L9.11086957,1.03804348 L9.2326087,1.38586957 L9.59782609,1.38586957 L9.16304348,1.62934783 Z M9.16304348,4.725 L9.28478261,5.07282609 L8.97173913,4.86413043 L8.67608696,5.07282609 L8.79782609,4.725 L8.64130435,4.48152174 L9.00652174,4.48152174 L9.11086957,4.11630435 L9.2326087,4.48152174 L9.59782609,4.48152174 L9.16304348,4.725 Z M9.16304348,7.82065217 L9.28478261,8.16847826 L8.97173913,7.95978261 L8.67608696,8.16847826 L8.79782609,7.82065217 L8.64130435,7.55978261 L9.00652174,7.55978261 L9.11086957,7.21195652 L9.2326087,7.55978261 L9.59782609,7.55978261 L9.16304348,7.82065217 Z M9.16304348,10.9858696 L9.28478261,11.3336957 L8.97173913,11.1076087 L8.67608696,11.3336957 L8.79782609,10.9858696 L8.64130435,10.725 L9.00652174,10.725 L9.11086957,10.3771739 L9.2326087,10.725 L9.59782609,10.725 L9.16304348,10.9858696 Z M9.28478261,14.3423913 L8.97173913,14.1336957 L8.67608696,14.3423913 L8.79782609,13.9945652 L8.64130435,13.751087 L9.00652174,13.751087 L9.11086957,13.3858696 L9.2326087,13.751087 L9.59782609,13.751087 L9.2326087,13.9945652 L9.28478261,14.3423913 Z M7.87608696,3.03804348 L7.99782609,3.38586957 L7.68478261,3.17717391 L7.38913043,3.38586957 L7.51086957,3.03804348 L7.19782609,2.81195652 L7.58043478,2.81195652 L7.68478261,2.46413043 L7.80652174,2.81195652 L8.17173913,2.81195652 L7.87608696,3.03804348 Z M7.87608696,6.22065217 L7.99782609,6.56847826 L7.68478261,6.35978261 L7.38913043,6.56847826 L7.51086957,6.22065217 L7.19782609,6.01195652 L7.58043478,6.01195652 L7.68478261,5.66413043 L7.80652174,6.01195652 L8.17173913,6.01195652 L7.87608696,6.22065217 Z M7.87608696,9.35108696 L7.99782609,9.69891304 L7.70217391,9.49021739 L7.38913043,9.69891304 L7.51086957,9.35108696 L7.18043478,9.125 L7.54565217,9.125 L7.6673913,8.77717391 L7.77173913,9.125 L8.15434783,9.125 L7.87608696,9.35108696 Z M7.87608696,12.8293478 L7.58043478,12.6032609 L7.28478261,12.8293478 L7.40652174,12.4815217 L7.14565217,12.2554348 L7.52826087,12.2554348 L7.6326087,11.9076087 L7.75434783,12.2554348 L8.11956522,12.2554348 L7.82391304,12.4815217 L7.87608696,12.8293478 Z M6.4673913,4.69021739 L6.57173913,5.03804348 L6.27608696,4.82934783 L5.98043478,5.03804348 L6.10217391,4.69021739 L5.78913043,4.48152174 L6.17173913,4.48152174 L6.27608696,4.11630435 L6.39782609,4.48152174 L6.76304348,4.48152174 L6.4673913,4.69021739 Z M6.4673913,7.78586957 L6.57173913,8.13369565 L6.27608696,7.925 L5.98043478,8.13369565 L6.10217391,7.78586957 L5.78913043,7.55978261 L6.17173913,7.55978261 L6.27608696,7.21195652 L6.39782609,7.55978261 L6.76304348,7.55978261 L6.4673913,7.78586957 Z M6.4673913,10.951087 L6.57173913,11.298913 L6.27608696,11.0728261 L5.98043478,11.298913 L6.10217391,10.951087 L5.78913043,10.725 L6.17173913,10.725 L6.27608696,10.3771739 L6.39782609,10.725 L6.76304348,10.725 L6.4673913,10.951087 Z M6.57173913,14.3076087 L6.27608696,14.098913 L5.98043478,14.3076087 L6.10217391,13.9597826 L5.78913043,13.751087 L6.17173913,13.751087 L6.27608696,13.3858696 L6.39782609,13.751087 L6.76304348,13.751087 L6.4673913,13.9945652 L6.57173913,14.3076087 Z M5.16304348,6.20326087 L5.2673913,6.55108696 L4.97173913,6.325 L4.67608696,6.55108696 L4.78043478,6.20326087 L4.48478261,5.97717391 L4.81521739,5.97717391 L4.91956522,5.62934783 L5.04130435,5.97717391 L5.40652174,5.97717391 L5.16304348,6.20326087 Z M5.16304348,9.31630435 L5.28478261,9.66413043 L4.98913043,9.45543478 L4.67608696,9.66413043 L4.79782609,9.31630435 L4.50217391,9.1076087 L4.8673913,9.1076087 L4.90217391,8.77717391 L5.00652174,9.1423913 L5.37173913,9.1423913 L5.16304348,9.31630435 Z M5.16304348,12.7945652 L4.8673913,12.5858696 L4.57173913,12.7945652 L4.67608696,12.4467391 L4.38043478,12.2554348 L4.74565217,12.2554348 L4.8673913,11.9076087 L4.98913043,12.2554348 L5.35434783,12.2554348 L5.05869565,12.4815217 L5.16304348,12.7945652 Z M11.7021739,1.38586957 L11.823913,1.03804348 L11.9282609,1.38586957 L12.3108696,1.38586957 L11.9978261,1.59456522 L12.1195652,1.95978261 L11.823913,1.82065217 L11.5108696,2.04673913 L11.6326087,1.68152174 L11.3369565,1.47282609 L11.7021739,1.38586957 Z M14.4673913,10.725 L14.5891304,10.3771739 L14.7108696,10.725 L15.076087,10.725 L14.7804348,10.951087 L14.8847826,11.298913 L14.5891304,11.0728261 L14.2934783,11.298913 L14.3978261,10.951087 L14.1021739,10.725 L14.4673913,10.725 Z M14.4673913,7.55978261 L14.5891304,7.21195652 L14.7108696,7.55978261 L15.076087,7.55978261 L14.7804348,7.78586957 L14.8847826,8.13369565 L14.5891304,7.925 L14.2934783,8.13369565 L14.3978261,7.78586957 L14.1021739,7.55978261 L14.4673913,7.55978261 Z M14.4673913,4.48152174 L14.5891304,4.11630435 L14.7108696,4.48152174 L15.076087,4.48152174 L14.7804348,4.69021739 L14.8847826,5.03804348 L14.5891304,4.82934783 L14.2934783,5.03804348 L14.3978261,4.69021739 L14.1021739,4.48152174 L14.4673913,4.48152174 Z M14.4673913,1.38586957 L14.5891304,1.03804348 L14.7108696,1.38586957 L15.076087,1.38586957 L14.7804348,1.59456522 L14.8847826,1.95978261 L14.5891304,1.82065217 L14.2934783,2.04673913 L14.3978261,1.68152174 L14.1021739,1.47282609 L14.4673913,1.38586957 Z M3.70217391,7.78586957 L3.80652174,8.13369565 L3.51086957,7.925 L3.21521739,8.13369565 L3.31956522,7.78586957 L3.02391304,7.55978261 L3.42391304,7.55978261 L3.54565217,7.21195652 L3.65,7.55978261 L4.0326087,7.55978261 L3.70217391,7.78586957 Z M3.70217391,10.951087 L3.80652174,11.298913 L3.51086957,11.0728261 L3.21521739,11.298913 L3.31956522,10.951087 L3.02391304,10.725 L3.42391304,10.725 L3.54565217,10.3771739 L3.65,10.725 L4.0326087,10.725 L3.70217391,10.951087 Z M3.80652174,14.3076087 L3.51086957,14.098913 L3.21521739,14.3076087 L3.31956522,13.9597826 L3.02391304,13.751087 L3.42391304,13.751087 L3.54565217,13.3858696 L3.65,13.751087 L4.0326087,13.751087 L3.70217391,13.9945652 L3.80652174,14.3076087 Z M2.31086957,9.26413043 L2.41521739,9.61195652 L2.11956522,9.40326087 L1.82391304,9.61195652 L1.92826087,9.26413043 L1.68478261,9.05543478 L2.0673913,9.05543478 L2.11956522,8.77717391 L2.24130435,9.1423913 L2.60652174,9.1423913 L2.31086957,9.26413043 Z M2.39782609,12.7423913 L2.10217391,12.5163043 L1.78913043,12.7423913 L1.91086957,12.3945652 L1.68478261,12.1336957 L2.05,12.1336957 L2.17173913,11.7858696 L2.27608696,12.1336957 L2.64130435,12.1336957 L2.34565217,12.3597826 L2.39782609,12.7423913 Z M1.04130435,14.3423913 L0.745652174,14.1336957 L0.432608696,14.3423913 L0.554347826,13.9945652 L0.258695652,13.7858696 L0.623913043,13.7858696 L0.745652174,13.4206522 L0.85,13.7858696 L1.21521739,13.7858696 L0.919565217,13.9945652 L1.04130435,14.3423913 Z M15.9456522,0.290217391 L14.6586957,0.0815217391 L12.1195652,0.238043478 C9.57232181,0.562704926 7.16461874,1.58597873 5.16304348,3.19456522 L5.16304348,3.35108696 L5.16304348,3.26413043 C4.69547988,3.63331795 4.25921371,4.04049971 3.85869565,4.48152174 L4.0673913,4.48152174 L3.77173913,4.69021739 L3.87608696,5.03804348 L3.58043478,4.82934783 L3.42391304,4.91630435 C3.14565217,5.22934783 2.88478261,5.57717391 2.62391304,5.925 L2.4326087,6.18586957 L2.4326087,6.42934783 L2.25869565,6.325 C1.39598684,7.65601613 0.772138714,9.12735606 0.415217391,10.6728261 L0.641304348,10.6728261 L0.763043478,10.325 L0.867391304,10.6728261 L1.2326087,10.6728261 L0.936956522,10.898913 L1.05869565,11.2467391 L0.763043478,11.0206522 L0.45,11.2467391 L0.57173913,10.898913 L0.397826087,10.7597826 C0.05625201,12.1643989 -0.05534058,13.6151026 0.0673913043,15.0554348 L15.9456522,15.0554348 L15.9456522,0.290217391 Z" id="形状" fill="#073470"></path>
                            </g>
                        </g>
                    </g>
                </g>
            </g>
        </g>
    </g>
</svg>