<?xml version="1.0" encoding="UTF-8"?>
<svg width="28px" height="28px" viewBox="0 0 28 28" version="1.1" xmlns="http://www.w3.org/2000/svg" xmlns:xlink="http://www.w3.org/1999/xlink">
    <title>委内瑞拉</title>
    <defs>
        <path d="M0.411223954,10.7054392 C1.74570263,5.19063796 6.27501053,1.0272717 11.8796216,0.163621065 C17.4842328,-0.70002957 23.0555375,1.90686822 25.986399,6.76439567 C28.9172605,11.6219231 28.6279453,17.7692461 25.2538407,22.3296755 C21.8797361,26.8901048 16.0882505,28.9615734 10.5895562,27.5747208 C7.00107316,26.6934826 3.910757,24.4191876 2.00102929,21.2540586 C0.0913015712,18.0889296 -0.480740774,14.2933347 0.411223954,10.7054392" id="path-1"></path>
    </defs>
    <g id="管网" stroke="none" stroke-width="1" fill="none" fill-rule="evenodd">
        <g id="About-Us" transform="translate(-576.000000, -2852.000000)">
            <g id="编组-8" transform="translate(0.000000, 2729.000000)">
                <g id="编组-5" transform="translate(236.000000, 119.000000)">
                    <g id="编组-10" transform="translate(336.000000, -0.000000)">
                        <g id="委内瑞拉" transform="translate(4.000000, 4.000000)">
                            <mask id="mask-2" fill="white">
                                <use xlink:href="#path-1"></use>
                            </mask>
                            <use id="蒙版" fill="#E72D14" fill-rule="nonzero" xlink:href="#path-1"></use>
                            <g mask="url(#mask-2)" fill-rule="nonzero">
                                <g transform="translate(-7.000000, 0.000000)">
                                    <path d="M0,28 L0,0 L41.9141953,0 L41.9141953,28 L0,28 Z M0.173003906,27.8269961 L41.7430508,27.8269961 L41.7430508,0.171171875 L0.173003906,0.171171875 L0.173003906,27.8269961 Z" id="形状" fill="#231F20"></path>
                                    <polygon id="路径" fill="#CF142B" points="0.0876640625 18.6369805 41.8288281 18.6369805 41.8288281 27.9123359 0.0876640625 27.9123359"></polygon>
                                    <polygon id="路径" fill="#0033AB" points="0.0876640625 9.36116016 41.8288281 9.36116016 41.8288281 18.6369805 0.0876640625 18.6369805"></polygon>
                                    <polygon id="路径" fill="#F7D117" points="0.0876640625 0.0858046875 41.8288281 0.0858046875 41.8288281 9.36113281 0.0876640625 9.36113281"></polygon>
                                    <path d="M13.6781367,15.3774687 L13.9735586,16.2684102 L14.8724023,16.2503086 L14.1567617,16.8207812 L14.4526484,17.7135547 L13.7147773,17.1714102 L12.9991367,17.7418555 L13.2584102,16.8370234 L12.5223711,16.2990078 L13.4193281,16.2804687 L13.6781367,15.3774687 L13.6781367,15.3774687 Z M15.4145742,13.0381016 L15.3779336,13.9772773 L16.2238672,14.2773477 L15.3533516,14.5584141 L15.3167109,15.4961953 L14.8153359,14.7318555 L13.9471172,15.0129219 L14.5073906,14.2587813 L14.0083672,13.4944688 L14.8538359,13.7922422 L15.4145742,13.0381016 L15.4145742,13.0381016 Z M17.8643008,11.4602852 L17.497457,12.3285039 L18.184332,12.9073164 L17.2711055,12.8627734 L16.9042617,13.7268359 L16.7066758,12.8363594 L15.7934766,12.7913516 L16.5842578,12.2839609 L16.3866719,11.3911875 L17.0735469,11.9699727 L17.8643281,11.4602852 L17.8643008,11.4602852 Z M20.7115234,10.8508203 L20.0636133,11.5316797 L20.5018789,12.316418 L19.6619609,11.9514063 L19.0140508,12.6345625 L19.1443711,11.7297031 L18.3044531,11.3665781 L19.2241328,11.1689922 L19.3544805,10.2659922 L19.7922812,11.0488438 L20.7115234,10.8508203 Z M23.5916406,11.2849297 L22.7438477,11.6907656 L22.8783789,12.5793828 L22.2221016,11.9453906 L21.3761406,12.3530586 L21.8144063,11.5520781 L21.1581563,10.9143672 L22.0875703,11.0567461 L22.5277227,10.255793 L22.6622266,11.1444102 L23.5916406,11.284957 L23.5916406,11.2849297 Z M26.1351016,12.7036875 L25.1977578,12.787168 L25.0099336,13.6655859 L24.6189727,12.8381641 L23.6834883,12.9216445 L24.3782656,12.3284766 L23.9868125,11.5010547 L24.8081914,11.9616055 L25.5015469,11.3665781 L25.3137227,12.2449961 L26.1351016,12.7036875 L26.1351016,12.7036875 Z M28.0143828,14.9294141 L27.1071992,14.6743242 L26.6220664,15.4307617 L26.5487852,14.5217461 L25.6420664,14.2689805 L26.5019453,13.9591758 L26.4286641,13.0459492 L27.033918,13.7657461 L27.8919375,13.4536172 L27.4068047,14.210082 L28.0143828,14.9294141 L28.0143828,14.9294141 Z M28.9888047,17.6727305 L28.2305078,17.1185 L27.5088516,17.652332 L27.7597578,16.7757734 L27.0014609,16.2215156 L27.9146602,16.2317422 L28.1669609,15.3533242 L28.4790898,16.2377578 L29.3941484,16.2502813 L28.6724922,16.7882969 L28.9888047,17.6727305 L28.9888047,17.6727305 Z" id="形状" fill="#FFFFFF"></path>
                                </g>
                            </g>
                        </g>
                    </g>
                </g>
            </g>
        </g>
    </g>
</svg>