<?xml version="1.0" encoding="UTF-8"?>
<svg width="428px" height="124px" viewBox="0 0 428 124" version="1.1" xmlns="http://www.w3.org/2000/svg" xmlns:xlink="http://www.w3.org/1999/xlink">
    <title>right</title>
    <defs>
        <rect id="path-1" x="0" y="0" width="428" height="124"></rect>
    </defs>
    <g id="管网" stroke="none" stroke-width="1" fill="none" fill-rule="evenodd">
        <g id="Products" transform="translate(-120.000000, -2824.000000)">
            <g id="编组-10" transform="translate(0.000000, 2136.000000)">
                <g id="right" transform="translate(120.000000, 688.000000)">
                    <mask id="mask-2" fill="white">
                        <use xlink:href="#path-1"></use>
                    </mask>
                    <g id="蒙版"></g>
                    <path d="M-635,2.05590625 C-552.336556,2.05590625 -501.514988,121 -435.929276,121 C-363.876953,121 -301.147204,2.05590625 -221.570724,2.05590625 C-141.994243,2.05590625 -100,120.993474 1.13686838e-13,120.993474 C100,120.993474 133.099507,2.05590625 213.728618,2.05590625 C294.35773,2.05590625 328,121 428,121 C528,121 550.941612,2.05636513 633.877467,2.05590625 C716.813322,2.05544737 745.754112,121 857,121 C968.245888,121 995.679688,-3 995.679688,-3" id="Path-1" stroke="#F6F7F9" stroke-width="4" mask="url(#mask-2)"></path>
                </g>
            </g>
        </g>
    </g>
</svg>