<svg width="29" height="30" viewBox="0 0 29 30" fill="none" xmlns="http://www.w3.org/2000/svg">
<path d="M0.599958 26.0781C-0.18884 26.8513 -0.201466 28.1176 0.571756 28.9064C1.34498 29.6952 2.61124 29.7078 3.40004 28.9346L0.599958 26.0781ZM28.9999 3.01994C29.0109 1.91543 28.1245 1.01111 27.0199 1.0001L9.02084 0.820623C7.91632 0.809609 7.01201 1.69607 7.00099 2.80058C6.98998 3.9051 7.87644 4.80941 8.98095 4.82042L24.9802 4.97996L24.8206 20.9792C24.8096 22.0837 25.6961 22.988 26.8006 22.999C27.9051 23.01 28.8094 22.1236 28.8204 21.019L28.9999 3.01994ZM3.40004 28.9346L28.4 4.42825L25.6 1.57176L0.599958 26.0781L3.40004 28.9346Z" fill="#F8752B"/>
</svg>
