<?xml version="1.0" encoding="UTF-8"?>
<svg width="72px" height="72px" viewBox="0 0 72 72" version="1.1" xmlns="http://www.w3.org/2000/svg" xmlns:xlink="http://www.w3.org/1999/xlink">
    <title>Staking Airdrop Factory</title>
    <g id="管网" stroke="none" stroke-width="1" fill="none" fill-rule="evenodd">
        <g id="Products" transform="translate(-287.000000, -1201.000000)" fill="#FFFFFF">
            <g id="编组-19" transform="translate(120.000000, 1153.000000)">
                <g id="Staking-Airdrop-Factory" transform="translate(167.000000, 48.000000)">
                    <path d="M36.1017761,0.749705754 C36.3879288,0.74790182 36.6776234,0.807540916 36.950766,0.934007134 L37.1125046,1.01794919 L70.8874954,20.5179492 C71.8440806,21.0702339 72.1718309,22.2934148 71.6195462,23.25 C71.0935607,24.1610336 69.9590527,24.5016953 69.0258628,24.0549891 L68.8874954,23.9820508 L63.9991707,21.159666 L64,68 L67,68 C68.1045695,68 69,68.8954305 69,70 C69,71.1045695 68.1045695,72 67,72 L5,72 C3.8954305,72 3,71.1045695 3,70 C3,68.8954305 3.8954305,68 5,68 L8,68 L8,68 L7.99917068,21.159666 L3.11250463,23.9820508 C2.15591938,24.5343356 0.932738568,24.2065852 0.380453819,23.25 C-0.171830931,22.2934148 0.155919379,21.0702339 1.11250463,20.5179492 L34.8874954,1.01794919 C35.2378689,0.815660943 35.6240082,0.731436066 35.9998464,0.752930938 L36.1017761,0.749705754 Z M36.0001707,4.99366605 L11.9991707,18.850666 L12,68 L60,68 L60,68 L59.9991707,18.849666 L36.0001707,4.99366605 Z M35.2591904,23.7272727 C37.1053442,23.7272727 38.0284212,24.6503496 38.0284212,26.4965035 L38.0278806,28.9267996 C38.2500367,28.9528747 38.4717884,28.9827783 38.6930365,29.0165035 C39.5793809,29.1638478 40.4506104,29.3909236 41.2961134,29.694965 C41.928073,29.9511286 42.5431532,30.247107 43.1376519,30.5811188 C43.7626264,30.9347435 44.1972844,31.5487185 44.323146,32.2556856 C44.4490075,32.9626526 44.2529522,33.6889138 43.7884211,34.2365034 L43.6776519,34.3611189 C42.938119,35.2245551 41.6914266,35.4449007 40.7007288,34.8872727 C40.2299596,34.6380419 39.7453442,34.4026573 39.2468827,34.194965 C38.0613206,33.7709062 36.8089009,33.5645149 35.5499596,33.5857343 C34.3713411,33.4709827 33.1899521,33.7749085 32.2130365,34.4441958 C31.5650067,34.9836291 31.1980412,35.7889146 31.2161134,36.6318881 C31.1973401,37.2240491 31.4851909,37.7840496 31.9776519,38.1134266 C32.7163652,38.6837295 33.6198976,38.9994801 34.5530365,39.0134266 L38.7068827,39.3318881 C40.8609431,39.3119981 42.9285472,40.1780889 44.4253442,41.7272727 C45.5515885,43.2182778 46.128698,45.052312 46.0591904,46.9195804 C46.1077326,49.2006493 44.9705978,51.3439126 43.054575,52.5826573 C41.5273526,53.5821686 39.8129538,54.2396405 38.0282825,54.5223226 L38.0284212,56.9580419 C38.0284212,58.7358197 37.1724541,59.6576304 35.4605199,59.723474 L35.2591904,59.7272727 C33.4130365,59.7272727 32.4899596,58.8041958 32.4899596,56.9580419 L32.4903242,54.3745183 C30.4523384,53.9687337 28.5057673,53.1560343 26.7714981,51.9734265 C26.1642332,51.5746311 25.7693522,50.9230989 25.6967963,50.2002267 C25.6242403,49.4773546 25.8817579,48.76034 26.3976519,48.2488111 C27.2209365,47.4205429 28.5160809,47.2927708 29.4853442,47.9441957 C31.3901269,49.2846108 33.6788922,49.9697825 36.0068827,49.8965035 C37.2540856,49.9457905 38.4905672,49.6486515 39.5791904,49.0380419 C40.4503925,48.5662279 40.9848046,47.647039 40.9638057,46.6565035 C41.0443441,45.9213851 40.7279237,45.198892 40.1330365,44.7595804 C39.4521604,44.350249 38.6704819,44.1392437 37.8761135,44.1503496 L33.4038057,43.7626573 C31.4803261,43.6542076 29.6502166,42.8977623 28.2114981,41.6165035 C26.8099098,40.3239003 26.045686,38.4816652 26.1207289,36.5765035 C26.0042862,34.2874127 27.0444442,32.0926794 28.8899596,30.7334265 C29.9882612,29.9725407 31.2091078,29.4243758 32.4895651,29.1072496 L32.4899596,26.4965035 C32.4899596,24.7187257 33.3459267,23.796915 35.0578608,23.7310714 L35.2591904,23.7272727 Z" id="形状结合"></path>
                </g>
            </g>
        </g>
    </g>
</svg>