<?xml version="1.0" encoding="UTF-8"?>
<svg width="72px" height="72px" viewBox="0 0 72 72" version="1.1" xmlns="http://www.w3.org/2000/svg" xmlns:xlink="http://www.w3.org/1999/xlink">
    <title>DAO Governance Factory</title>
    <defs>
        <rect id="path-1" x="0" y="0" width="72" height="72"></rect>
    </defs>
    <g id="管网" stroke="none" stroke-width="1" fill="none" fill-rule="evenodd">
        <g id="Products" transform="translate(-1103.000000, -1201.000000)">
            <g id="编组-19" transform="translate(120.000000, 1118.000000)">
                <g id="编组" transform="translate(839.000000, 48.000000)">
                    <g id="DAO-Governance-Factory" transform="translate(144.000000, 35.000000)">
                        <mask id="mask-2" fill="white">
                            <use xlink:href="#path-1"></use>
                        </mask>
                        <g id="矩形" opacity="0.100000001"></g>
                        <path d="M4.09624954,67.499563 L4.06143693,68.0007629 L40.7471317,68.0007938 L41.0196355,68.1387037 L41.29477,68.2721044 L47.75,71.999 L-1.13686838e-13,72 L-1.13686838e-13,68 L0.0546093074,68.0001361 C0.923917955,52.123445 12.080656,38.9865107 26.9730522,35.1411044 C21.5857862,31.7882663 18,25.8128858 18,19 C18,8.61942212 26.3246359,0.183167131 36.6622002,0.00294249789 L37,1.42108547e-14 C47.4934102,1.42108547e-14 56,8.50658975 56,19 C56,29.2583147 47.8703055,37.6178376 37.7022214,37.9872638 L37.6344383,38.0413354 C37.0932692,38.0137872 36.5482447,38 36,38 C19.1683478,38 5.37186156,50.9950904 4.09624954,67.499563 Z M58,36.1547005 L70.02147,43.0952995 C71.2590743,43.8098306 72.02147,45.1303387 72.02147,46.5594011 L72.02147,60.4405989 C72.02147,61.8696613 71.2590743,63.1901694 70.02147,63.9047005 L58,70.8452995 C57.4499536,71.1628689 56.843179,71.3392963 56.2301012,71.3745818 L56,71.3811978 C55.3094011,71.3811978 54.6188022,71.2025651 54,70.8452995 L41.97853,63.9047005 C40.7409257,63.1901694 39.97853,61.8696613 39.97853,60.4405989 L39.97853,46.5594011 C39.97853,45.1303387 40.7409257,43.8098306 41.97853,43.0952995 L54,36.1547005 C54.5500464,35.8371311 55.156821,35.6607037 55.7698988,35.6254182 L56,35.6188022 C56.6905989,35.6188022 57.3811978,35.7974349 58,36.1547005 Z M56,39.6188022 L43.97853,46.5594011 L43.97853,60.4405989 L56,67.3811978 L68.02147,60.4405989 L68.02147,46.5594011 L56,39.6188022 Z M56,47.5 C59.3137085,47.5 62,50.1862915 62,53.5 C62,56.7383969 59.4344251,59.3775718 56.2249383,59.4958615 L56,59.5 C52.6862915,59.5 50,56.8137085 50,53.5 C50,50.2616031 52.5655749,47.6224282 55.7750617,47.5041385 L56,47.5 Z M56,50.5 C54.3431458,50.5 53,51.8431458 53,53.5 C53,55.1568542 54.3431458,56.5 56,56.5 C57.6568542,56.5 59,55.1568542 59,53.5 C59,51.8431458 57.6568542,50.5 56,50.5 Z M37,4 C28.7157288,4 22,10.7157288 22,19 C22,24.1276779 24.5898427,28.8050055 28.7909065,31.5562871 L29.0866058,31.7450934 L32.919,34.13 L33.1695394,34.1099064 C33.9169281,34.0516478 34.6705368,34.0162629 35.429647,34.0044392 L36,34 L36.6147995,34.0051669 L36.915,34.012 L37.5569894,33.9899012 C45.4950064,33.7014977 51.8291011,27.2527399 51.9965991,19.3223043 L52,19 C52,10.7157288 45.2842712,4 37,4 Z" id="形状结合" fill="#FFFFFF" fill-rule="nonzero" mask="url(#mask-2)"></path>
                    </g>
                </g>
            </g>
        </g>
    </g>
</svg>