<?xml version="1.0" encoding="UTF-8"?>
<svg width="72px" height="72px" viewBox="0 0 72 72" version="1.1" xmlns="http://www.w3.org/2000/svg" xmlns:xlink="http://www.w3.org/1999/xlink">
    <title>DApp Factory</title>
    <g id="管网" stroke="none" stroke-width="1" fill="none" fill-rule="evenodd">
        <g id="Products" transform="translate(-695.000000, -1201.000000)" fill="#FFFFFF" fill-rule="nonzero">
            <g id="编组-19" transform="translate(120.000000, 1153.000000)">
                <g id="编组" transform="translate(443.000000, 13.000000)">
                    <path d="M196,35 C200.418278,35 204,38.6424292 204,43.1355932 L204,86.8644068 C204,91.3575708 200.418278,95 196,95 L176.998,95 L178.967128,102.346065 C179.025922,102.565488 179.045845,102.786169 179.031118,103.000797 L186,103 C187.104569,103 188,103.895431 188,105 C188,106.104569 187.104569,107 186,107 L150,107 C148.895431,107 148,106.104569 148,105 C148,103.895431 148.895431,103 150,103 L156.968882,103.000797 C156.954155,102.786169 156.974078,102.565488 157.032872,102.346065 L159.001,95 L140,95 C135.581722,95 132,91.3575708 132,86.8644068 L132,43.1355932 C132,38.6424292 135.581722,35 140,35 L196,35 Z M172.968814,95.0001981 L163.031186,95.0001981 C163.045783,95.2145128 163.025831,95.4348508 162.967128,95.6539348 L160.998,103 L175.001,103 L173.032872,95.6539348 C172.974169,95.4348508 172.954217,95.2145128 172.968814,95.0001981 Z M196,39 L140,39 C137.857805,39 136.108921,40.7169875 136.004895,42.8748765 L136,43.0784314 L136,86.9215686 C136,89.1057679 137.683968,90.8889432 139.80036,90.9950087 L140,91 L196,91 C198.142195,91 199.891079,89.2830125 199.995105,87.1251235 L200,86.9215686 L200,43.0784314 C200,40.8942321 198.316032,39.1110568 196.19964,39.0049913 L196,39 Z M167,48 C172.610836,48 177.450758,51.300676 179.684004,56.0662671 C180.116294,56.0223045 180.555542,56 181,56 C188.179702,56 194,61.8202983 194,69 C194,76.0771346 188.344808,81.8334283 181.306856,81.9964496 L181,82 L154,82 C147.924868,82 143,77.0751322 143,71 C143,65.2148413 147.465948,60.4727605 153.138352,60.0332501 C154.093195,53.232449 159.935546,48 167,48 Z M167,52 C162.09356,52 157.943376,55.5569969 157.141307,60.3186059 L157.0995,60.5894016 L156.652524,63.7729532 L153.447355,64.0212969 C149.82324,64.3021013 147,67.3388644 147,71 C147,74.7854517 150.004783,77.8690987 153.75935,77.995941 L154,78 L180.953722,78.0002677 L181.214228,77.9975222 C186.092705,77.8845213 190,73.891107 190,69 C190,64.0294373 185.970563,60 181,60 C180.794497,60 180.590797,60.0068223 180.389285,60.0203754 L180.088705,60.0457416 L177.265959,60.3328061 L176.061986,57.7636137 C174.426976,54.2746177 170.920296,52 167,52 Z M168,58 C169.104569,58 170,58.8954305 170,60 L169.999427,67.071 L170.112496,66.9689537 C170.898284,66.3069014 172.073768,66.3458457 172.813708,67.0857864 C173.594757,67.866835 173.594757,69.133165 172.813708,69.9142136 L169.278175,73.4497475 C168.497126,74.2307961 167.230796,74.2307961 166.449747,73.4497475 L162.914214,69.9142136 C162.133165,69.133165 162.133165,67.866835 162.914214,67.0857864 C163.695262,66.3047379 164.961592,66.3047379 165.742641,67.0857864 L165.999427,67.342 L166,60 C166,58.8954305 166.895431,58 168,58 Z" id="DApp-Factory"></path>
                </g>
            </g>
        </g>
    </g>
</svg>