<?xml version="1.0" encoding="UTF-8"?>
<svg width="28px" height="28px" viewBox="0 0 28 28" version="1.1" xmlns="http://www.w3.org/2000/svg" xmlns:xlink="http://www.w3.org/1999/xlink">
    <title>马来西亚</title>
    <g id="管网" stroke="none" stroke-width="1" fill="none" fill-rule="evenodd">
        <g id="About-Us" transform="translate(-948.000000, -3295.000000)" fill-rule="nonzero">
            <g id="编组-8" transform="translate(0.000000, 2729.000000)">
                <g id="编组-5" transform="translate(236.000000, 119.000000)">
                    <g id="编组-10备份-2" transform="translate(708.000000, 443.000000)">
                        <g id="马来西亚" transform="translate(4.000000, 4.000000)">
                            <path d="M25.1593189,5.67559274 L14.0033144,5.67559274 L14.0033144,8.50387556 L26.8877139,8.50387556 C26.4163335,7.4039878 25.7878262,6.46122684 25.1593189,5.67559274 Z" id="路径" fill="#DC3040"></path>
                            <path d="M27.6733481,16.8315972 C27.8304749,15.8888363 27.9876017,14.9460753 27.9876017,14.0033144 L0.0190270794,14.0033144 C0.0190270794,14.9460753 0.176153906,15.8888363 0.333280733,16.8315972 L27.6733481,16.8315972 Z" id="路径" fill="#F2F2F2"></path>
                            <path d="M14.0033144,0.0190270794 L14.0033144,2.84730991 L22.3310361,2.84730991 C19.9741337,0.961788013 16.988724,0.0190270794 14.0033144,0.0190270794 Z" id="路径" fill="#DC3040"></path>
                            <path d="M14.0033144,5.67559274 L25.1593189,5.67559274 C24.3736848,4.57570498 23.4309238,3.63294401 22.3310361,2.84730991 L14.0033144,2.84730991 L14.0033144,5.67559274 Z M26.8877139,8.34674874 L14.0033144,8.34674874 L14.0033144,11.1750316 L27.6733481,11.1750316 C27.5162212,10.2322706 27.2019676,9.28950967 26.8877139,8.34674874 L26.8877139,8.34674874 Z" id="形状" fill="#F2F2F2"></path>
                            <path d="M14.0033144,11.1750316 L14.0033144,14.0033144 L27.9876017,14.0033144 C27.9876017,13.0605535 27.8304749,12.1177925 27.6733481,11.1750316 L14.0033144,11.1750316 Z M1.11891484,19.6598801 L26.7305871,19.6598801 C27.2019676,18.7171191 27.3590944,17.7743582 27.6733481,16.8315972 L0.333280733,16.8315972 C0.49040756,17.7743582 0.804661214,18.7171191 1.11891484,19.6598801 Z" id="形状" fill="#DC3040"></path>
                            <path d="M2.84730991,22.3310361 L25.1593189,22.3310361 C25.7878262,21.3882751 26.4163335,20.602641 26.7305871,19.5027532 L1.11891484,19.5027532 C1.59029532,20.602641 2.2188026,21.5454019 2.84730991,22.3310361 Z" id="路径" fill="#F2F2F2"></path>
                            <path d="M2.84730991,22.3310361 C3.63294401,23.4309238 4.57570498,24.3736848 5.67559274,25.1593189 L22.4881629,25.1593189 C23.5880506,24.3736848 24.5308116,23.4309238 25.3164457,22.3310361 L2.84730991,22.3310361 Z" id="路径" fill="#DC3040"></path>
                            <path d="M5.67559274,25.1593189 C10.7036511,28.9303626 17.4601045,28.9303626 22.4881629,25.1593189 L5.67559274,25.1593189 Z" id="路径" fill="#F2F2F2"></path>
                            <path d="M14.0033144,0.0190270794 C6.30410002,0.0190270794 0.0190270794,6.30410002 0.0190270794,14.0033144 L14.0033144,14.0033144 L14.0033144,0.0190270794 Z" id="路径" fill="#2A5F9E"></path>
                            <path d="M8.34674874,11.0179047 C6.93260732,11.0179047 5.67559274,9.91801698 5.67559274,8.34674874 C5.67559274,6.7754805 6.7754805,5.67559274 8.34674874,5.67559274 C8.81812922,5.67559274 9.4466365,5.83271956 9.76089015,6.14697322 C9.28950967,5.51846591 8.34674874,5.04708543 7.4039878,5.04708543 C5.67559274,5.04708543 4.10432449,6.46122684 4.10432449,8.34674874 C4.10432449,10.0751438 5.51846591,11.646412 7.4039878,11.646412 C8.34674874,11.646412 9.13238287,11.1750316 9.76089015,10.5465243 C9.4466365,10.8607779 8.81812922,11.0179047 8.34674874,11.0179047 L8.34674874,11.0179047 Z M11.1750316,7.87536826 L11.4892852,7.08973415 L11.4892852,7.87536826 L12.1177925,7.24686098 L11.646412,8.03249508 L12.4320462,7.71824143 L11.8035389,8.34674874 L12.7462998,8.50387556 L11.8035389,8.50387556 L12.4320462,8.97525604 L11.646412,8.81812922 L12.1177925,9.60376332 L11.4892852,8.97525604 L11.646412,9.91801698 L11.1750316,8.97525604 L10.8607779,9.76089015 L11.0179047,8.81812922 L10.3893975,9.60376332 L10.8607779,8.81812922 L9.91801698,8.97525604 L10.7036511,8.50387556 L9.76089015,8.34674874 L10.7036511,8.18962191 L9.91801698,7.71824143 L10.8607779,8.03249508 L10.3893975,7.24686098 L11.0179047,7.87536826 L10.8607779,6.93260732 L11.1750316,7.87536826 L11.1750316,7.87536826 Z" id="形状" fill="#FFE62E"></path>
                        </g>
                    </g>
                </g>
            </g>
        </g>
    </g>
</svg>