<?xml version="1.0" encoding="UTF-8"?>
<svg width="40px" height="40px" viewBox="0 0 40 40" version="1.1" xmlns="http://www.w3.org/2000/svg" xmlns:xlink="http://www.w3.org/1999/xlink">
    <title>telegram</title>
    <g id="管网" stroke="none" stroke-width="1" fill="none" fill-rule="evenodd">
        <g id="About-Us" transform="translate(-1208.000000, -4197.000000)">
            <g id="编组-34" transform="translate(0.000000, 4029.000000)">
                <g id="编组-19" transform="translate(1208.000000, 168.000000)">
                    <rect id="矩形备份-10" stroke="#FFFFFF" opacity="0.5" x="0.5" y="0.5" width="39" height="39" rx="19.5"></rect>
                    <g id="telegram" transform="translate(11.000000, 13.000000)" fill="#FFFFFF" fill-rule="nonzero">
                        <path d="M14.1204627,13.1473912 L16.6381192,1.27843928 C16.7408635,0.776046925 16.6809193,0.416381717 16.4582866,0.199443652 C16.2356538,-0.0174944126 15.9416375,-0.0574572136 15.5762376,0.0795552494 L0.778591894,5.7828264 C0.447460125,5.90842949 0.22195004,6.05115663 0.102061637,6.21100783 C-0.0178267659,6.37085904 -0.0320934858,6.52213822 0.0592614771,6.66484538 C0.15061644,6.80755254 0.333296394,6.91887892 0.607301338,6.9988245 L4.39235805,8.18059446 L13.1784696,2.64855392 C13.4182464,2.48870271 13.6009363,2.45445459 13.7265394,2.54580956 C13.806465,2.60289642 13.7836263,2.68852671 13.6580232,2.80270043 L6.5503493,9.22533197 L6.27631438,13.1302771 C6.53892993,13.1302771 6.79584078,13.004674 7.04704695,12.7534678 L8.89674517,10.9722858 L12.7331741,13.7982053 C13.4639139,14.2092627 13.9263434,13.9923247 14.1204627,13.1473912 L14.1204627,13.1473912 Z" id="路径"></path>
                    </g>
                </g>
            </g>
        </g>
    </g>
</svg>