<?xml version="1.0" encoding="UTF-8"?>
<svg width="136px" height="56px" viewBox="0 0 136 56" version="1.1" xmlns="http://www.w3.org/2000/svg" xmlns:xlink="http://www.w3.org/1999/xlink">
    <title>logo</title>
    <defs>
        <rect id="path-1" x="0" y="0" width="39" height="39" rx="19.5"></rect>
        <filter x="-26.9%" y="-16.7%" width="153.8%" height="166.7%" filterUnits="objectBoundingBox" id="filter-3">
            <feMorphology radius="5" operator="erode" in="SourceAlpha" result="shadowSpreadOuter1"></feMorphology>
            <feOffset dx="0" dy="9" in="shadowSpreadOuter1" result="shadowOffsetOuter1"></feOffset>
            <feGaussianBlur stdDeviation="7" in="shadowOffsetOuter1" result="shadowBlurOuter1"></feGaussianBlur>
            <feColorMatrix values="0 0 0 0 0   0 0 0 0 0   0 0 0 0 0  0 0 0 0.259588068 0" type="matrix" in="shadowBlurOuter1"></feColorMatrix>
        </filter>
    </defs>
    <g id="管网" stroke="none" stroke-width="1" fill="none" fill-rule="evenodd">
        <g id="About-Us" transform="translate(-108.000000, -4069.000000)">
            <g id="编组-34" transform="translate(0.000000, 4029.000000)">
                <g id="logo" transform="translate(108.000000, 40.000000)">
                    <g id="编组-3" transform="translate(12.000000, 9.000000)">
                        <g id="编组-2" transform="translate(1.000000, 0.000000)">
                            <mask id="mask-2" fill="white">
                                <use xlink:href="#path-1"></use>
                            </mask>
                            <g id="Mask">
                                <use fill="black" fill-opacity="1" filter="url(#filter-3)" xlink:href="#path-1"></use>
                                <use fill="#412210" fill-rule="evenodd" xlink:href="#path-1"></use>
                            </g>
                            <g id="_95766864" mask="url(#mask-2)">
                                <g transform="translate(-0.500000, 0.000000)">
                                    <ellipse id="椭圆形" fill="#FEFEFE" cx="19.91844" cy="19.6177713" rx="19.4622925" ry="19.3159595"></ellipse>
                                    <path d="M12.1132498,4.32597009 C11.8598345,4.47687602 11.1502717,5.03019778 10.9475395,5.23140569 L9.42704793,6.74046502 C8.10928854,8.40043029 7.60245801,8.80284611 6.53811389,11.1167371 C6.23401557,11.7203608 5.62581892,13.581534 5.57513587,14.3360637 C6.84221221,13.8833459 6.99426137,14.4869696 9.42704793,14.0845538 C10.6941243,13.8330439 12.6200803,12.6760984 13.5323753,11.8712668 L14.6980855,10.8652272 C15.0528669,10.6137173 15.1035499,10.2616035 15.8131127,9.85918765 C16.7760907,9.35616787 16.7254076,10.2616035 17.2829212,10.3622074 C17.130872,10.0100936 17.0295059,9.65797973 16.8774568,9.30586589 C16.3199432,9.35616787 15.8637957,9.40646985 15.5596974,9.00405402 C15.5090143,8.24952436 16.167894,7.6962026 16.9281398,7.6962026 C16.9281398,6.38835118 19.6143417,6.28774722 21.0841502,7.99801447 L21.6923468,8.75254413 C22.0471282,9.15495996 23.1114723,9.054356 23.8210351,9.25556391 C25.3922097,9.65797973 25.8990403,10.1106975 26.7099691,11.5191529 C27.3688488,12.6257964 27.7236302,13.631836 28.534559,14.9396874 C29.2441218,16.1469349 30.1057337,17.5553902 28.7372913,18.5111278 C27.8249963,19.1650535 26.1524555,19.7686773 24.682647,19.6680733 C22.0978113,19.4668654 21.4896146,20.472905 20.5266366,20.7244148 C17.6377026,21.4286425 16.7760907,20.5232069 16.0665279,20.472905 C16.0158449,21.0262267 17.1815551,21.8813603 17.6883856,22.0825682 C19.3102433,22.686192 23.5676198,22.535286 25.4935758,22.4346821 C25.8483572,22.4346821 26.7606522,22.2334742 26.8620183,22.2334742 C27.2674827,22.585588 27.3688488,23.2898157 27.0647505,23.6922315 C26.55792,24.3964592 25.2401606,24.0946474 24.2264995,24.798875 C23.3648876,25.4024988 21.3882485,26.9618601 20.6280027,27.163068 C17.9924839,27.9678996 16.7254076,26.7103502 14.5460363,28.9739392 C12.8228125,30.7345084 13.9378397,32.7968895 15.3569652,34.2556469 C16.5226754,35.4628943 19.1581942,36.217424 20.881418,36.6701418 C21.8950791,36.8713497 23.5169368,36.8713497 24.5812809,36.9216517 C25.1387945,36.9719537 28.0277285,37.1228596 28.3318268,37.0222556 C28.6359252,36.9719537 29.3454879,36.5192359 29.5989032,36.3683299 C30.409832,35.9156121 31.2714439,35.3119884 31.9810067,34.7586666 C33.0960339,33.903533 34.0590119,32.8974935 34.9713068,31.8411519 C35.5288204,31.1872262 36.1370171,30.3320926 36.6438476,29.527261 C36.8972629,29.0242412 37.8095578,27.4145779 37.9109239,26.8612561 C37.7081917,26.6600482 37.3534103,26.5091423 37.3027273,26.4085383 C37.1506781,26.3582364 36.998629,26.2576324 36.8972629,26.1570284 L36.1877001,25.6037067 C35.6301865,25.2012909 35.5795035,25.1509889 35.2247221,24.7485731 C34.5151593,23.8431375 34.3124271,23.4910236 34.0083288,22.2334742 C33.8562797,21.6298504 33.6028644,20.7244148 33.6535474,20.1207911 C33.5521813,20.0201872 33.6535474,20.1207911 33.5521813,20.0704891 C33.3494491,19.8692812 33.4508152,20.0201872 33.3494491,19.8692812 C33.248083,19.6680733 33.2987661,18.7123357 33.3494491,18.4608258 C33.5014983,17.8069001 33.6535474,17.5050883 34.2617441,17.2535784 C35.4781374,16.7505586 36.1370171,16.6499546 37.7081917,16.6499546 C37.7081917,16.0463309 37.4547764,15.6942171 37.8602409,15.5433111 C38.0629731,15.4930092 38.4684375,15.4427072 38.5191206,15.6942171 C38.5191206,15.794821 38.5191206,15.744519 38.5191206,15.845123 C38.4684375,16.0966329 38.3670714,16.3481428 38.5698036,16.6499546 C39.2286833,16.7505586 39.1273172,16.7002566 39.1273172,16.4990487 C38.7725358,14.3360637 38.1136561,12.5251925 37.2520442,10.8149252 C36.5931645,9.55737578 35.123356,7.29378678 34.0590119,6.3380492 L32.5892033,4.92959382 C32.4371542,4.82898987 32.2344219,4.62778196 32.0823728,4.527178 C31.6769084,4.22536613 31.37281,3.97385625 30.9673456,3.67204438 C29.3454879,2.56540087 26.4058708,1.10664351 24.3785487,0.754529667 C23.3142046,0.603623733 21.8950791,0.754529667 20.7800519,1.00603956 L17.5363365,1.76056922 C16.5733585,2.06238109 15.4583313,2.46479691 14.6474024,2.86721273 C13.7351075,3.31993053 12.4173481,4.17506416 12.1132498,4.32597009 Z" id="路径" fill="#F8B62A"></path>
                                    <path d="M0.0506830534,20.422603 C0.15204916,22.0825682 0.405464427,23.4910236 0.810928854,25.000083 C1.01366107,25.7043106 2.02732213,28.5212214 2.48346962,28.8733352 C2.53415267,28.7727313 2.43278656,28.7727313 2.58483572,28.8733352 C2.68620183,28.6218254 3.6998629,27.9678996 3.90259511,27.8169937 C4.40942564,27.5151818 4.86557312,27.21337 5.3217206,26.9115581 C5.87923419,26.4588403 6.0819664,26.3582364 6.94357831,26.1570284 C7.55177495,25.9558205 8.21065465,25.8552166 8.81885129,25.6540087 C9.62978014,25.3521968 11.3023209,24.5976671 11.9105175,24.0946474 C12.366665,23.7425335 12.4680311,23.2395137 12.7214464,22.535286 L13.329643,20.8250188 C12.9748617,21.2274346 13.0762278,21.3783406 12.4680311,22.0322663 C11.5050531,22.9880038 9.17363266,23.7425335 7.85587327,23.8934394 C5.2203545,24.1952513 5.01762228,24.5976671 3.39576458,25.8049146 C3.09166626,26.0564245 2.43278656,26.5594443 2.07800519,26.7103502 C2.63551878,25.3018948 3.801229,23.0886078 4.66284091,22.2334742 C6.03128335,20.8753208 6.28469862,21.0262267 7.90655633,20.1710931 C9.27499877,19.3662614 10.0859276,19.0644496 11.4543701,18.4105239 C12.2652989,17.9578061 12.8228125,17.4044843 13.4816922,16.8511626 C14.0898888,16.2978408 14.4953533,15.794821 14.9515007,14.8390834 C15.154233,14.3360637 15.8637957,12.7767024 15.9144788,12.3239846 C13.1775939,14.7887815 13.0762278,14.8893854 9.83251235,16.4990487 C9.47773098,16.7002566 9.07226655,16.9014645 8.66680213,17.0523705 C8.2613377,17.2032764 7.80519022,17.3541823 7.34904274,17.5050883 C6.53811389,17.8572021 5.77786808,18.2596179 5.06830534,18.6620338 C4.25737648,19.1147516 3.64917984,19.5171674 3.09166626,20.1710931 C2.68620183,20.6238109 2.02732213,21.6298504 1.77390687,22.2837762 C1.57117465,22.686192 1.41912549,23.1892118 1.36844244,23.5916276 C1.26707633,23.8934394 1.16571023,24.899479 1.06434412,25.1006869 C0.709562747,24.3964592 0.709562747,20.6238109 0.810928854,19.6680733 C1.01366107,17.8572021 1.31775939,16.2978408 1.82458992,14.7384795 C2.58483572,12.5754944 3.59849679,10.7646232 4.91625618,8.95375205 C7.09562747,6.08653931 9.83251235,3.92355427 13.1775939,2.36419296 C15.8131127,1.15694549 19.8677569,0.251509889 23.2635215,0.553321756 C22.3005435,0.4527178 17.8911178,1.50905933 17.080189,1.76056922 C15.2555991,2.36419296 13.5323753,3.11872262 12.0118836,4.22536613 C12.0118836,4.37627207 11.9612006,4.37627207 12.1132498,4.32597009 C12.4173481,4.17506416 13.7351075,3.31993053 14.6474024,2.86721273 C15.4583313,2.46479691 16.5733585,2.06238109 17.5363365,1.76056922 L20.7800519,1.00603956 C21.8950791,0.754529667 23.3142046,0.603623733 24.3785487,0.754529667 C24.4799148,0.603623733 24.3278656,0.754529667 24.4799148,0.704227689 C24.5812809,0.704227689 24.682647,0.704227689 24.73333,0.704227689 C24.2264995,0.4527178 23.2635215,0.352113844 22.6553249,0.251509889 C22.2498604,0.201207911 20.5266366,0.0503019778 20.3745875,0 C19.2595603,0 17.9924839,0.0503019778 16.8774568,0.251509889 C14.8501346,0.553321756 13.0255447,1.05634153 11.2009548,1.96177713 C10.0352446,2.51509889 9.12294961,3.11872262 8.15997159,3.77264833 C7.09562747,4.47687602 6.28469862,5.28170767 5.52445282,6.08653931 C2.43278656,9.20526193 -0.15204916,14.1851577 0.0506830534,20.422603 Z" id="路径" fill="#412210"></path>
                                    <path d="M37.3534103,26.3582364 C37.5054595,26.4085383 38.01229,26.7606522 38.1643392,26.8612561 C38.4177545,26.6600482 38.6204867,26.4588403 38.8739019,26.2576324 C39.1780003,26.0061225 39.2286833,25.8049146 39.5834647,25.5031027 C40.0396122,25.0503849 40.4450766,24.798875 40.9519071,24.0946474 C41.762836,22.9880038 41.762836,20.8753208 41.7121529,19.3159595 C41.5094207,19.1147516 41.1039563,18.5111278 40.6984919,18.4608258 C40.3943935,18.7123357 40.3943935,19.2656575 40.0902952,19.6177713 C39.2793664,19.7183753 39.3300494,18.6620338 38.975268,18.209316 C38.3163884,18.159014 38.4684375,19.3159595 38.0629731,19.6680733 C37.4040934,19.7686773 37.2520442,18.6620338 36.6438476,18.6620338 C36.2383832,18.8632417 36.086334,19.5171674 35.6808696,19.8189792 C35.0219899,20.2213951 34.8192577,19.4165634 34.5151593,19.0644496 C34.2617441,19.2153555 34.0590119,19.5171674 33.8562797,19.8189792 C33.6535474,20.1207911 33.8055966,20.422603 33.8562797,21.0262267 C33.9576458,21.6298504 34.2617441,22.8370979 34.5151593,23.3401177 C34.6672085,23.7928355 35.0726729,24.3461572 35.3767713,24.6982711 L35.7315526,25.0503849 C35.9342848,25.2515928 36.2890662,25.4528008 36.5424815,25.7043106 C36.8465798,25.9558205 37.0999951,26.0564245 37.3534103,26.3582364 Z" id="路径" fill="#FEFEFE"></path>
                                    <path d="M37.3027273,26.4085383 L37.3534103,26.3582364 C37.0999951,26.0564245 36.8465798,25.9558205 36.5424815,25.7043106 C36.2890662,25.4528008 35.9342848,25.2515928 35.7315526,25.0503849 L35.3767713,24.6982711 C35.0726729,24.3461572 34.6672085,23.7928355 34.5151593,23.3401177 C34.2617441,22.8370979 33.9576458,21.6298504 33.8562797,21.0262267 C33.8055966,20.422603 33.6535474,20.1207911 33.8562797,19.8189792 C34.0590119,19.5171674 34.2617441,19.2153555 34.5151593,19.0644496 C34.8192577,19.4165634 35.0219899,20.2213951 35.6808696,19.8189792 C36.086334,19.5171674 36.2383832,18.8632417 36.6438476,18.6620338 C37.2520442,18.6620338 37.4040934,19.7686773 38.0629731,19.6680733 C38.4684375,19.3159595 38.3163884,18.159014 38.975268,18.209316 C39.3300494,18.6620338 39.2793664,19.7183753 40.0902952,19.6177713 C40.3943935,19.2656575 40.3943935,18.7123357 40.6984919,18.4608258 C41.1039563,18.5111278 41.5094207,19.1147516 41.7121529,19.3159595 C41.813519,19.4668654 41.762836,19.3662614 41.8642021,19.4165634 C42.2696665,18.9638456 42.0162512,19.1650535 42.2696665,18.6620338 L42.2696665,18.108712 C42.1176174,17.7565982 42.2189835,17.5553902 41.9148851,17.3038804 C41.7121529,17.1529744 41.4587377,17.1026724 41.1546393,17.0020685 C40.5464427,16.8511626 39.9382461,16.8008606 39.3300494,16.7002566 L39.1273172,16.4990487 C39.1273172,16.7002566 39.2286833,16.7505586 38.5698036,16.6499546 C38.3670714,16.3481428 38.4684375,16.0966329 38.5191206,15.845123 C38.5191206,15.744519 38.5191206,15.794821 38.5191206,15.6942171 C38.4684375,15.4427072 38.0629731,15.4930092 37.8602409,15.5433111 C37.4547764,15.6942171 37.7081917,16.0463309 37.7081917,16.6499546 C36.1370171,16.6499546 35.4781374,16.7505586 34.2617441,17.2535784 C33.6535474,17.5050883 33.5014983,17.8069001 33.3494491,18.4608258 C33.2987661,18.7123357 33.248083,19.6680733 33.3494491,19.8692812 C33.4508152,20.0201872 33.3494491,19.8692812 33.5521813,20.0704891 C33.6535474,20.1207911 33.5521813,20.0201872 33.6535474,20.1207911 C33.6028644,20.7244148 33.8562797,21.6298504 34.0083288,22.2334742 C34.3124271,23.4910236 34.5151593,23.8431375 35.2247221,24.7485731 C35.5795035,25.1509889 35.6301865,25.2012909 36.1877001,25.6037067 L36.8972629,26.1570284 C36.998629,26.2576324 37.1506781,26.3582364 37.3027273,26.4085383 Z" id="路径" fill="#412210"></path>
                                    <path d="M2.58483572,28.8733352 C2.43278656,28.7727313 2.53415267,28.7727313 2.48346962,28.8733352 C2.53415267,29.2757511 3.49713068,30.6339045 3.6998629,30.9357163 C4.20669343,31.639944 4.71352396,32.1932658 5.2203545,32.7968895 L6.94357831,34.4568548 C8.66680213,35.9659141 11.0489056,37.3240675 13.3803261,38.1288992 C14.1912549,38.430711 15.1035499,38.6319189 16.0158449,38.8331269 C16.5226754,38.9337308 16.9788229,38.9840328 17.4856534,39.0343348 C17.8911178,39.0846367 18.6513636,39.0846367 19.006145,39.1852407 L20.6786858,39.1852407 C20.8307349,39.1349387 22.6553249,38.9840328 23.0101062,38.9337308 C27.9263624,38.1288992 32.8426186,35.2113844 35.7315526,31.1369242 C36.6438476,29.8793748 36.9479459,29.376355 37.6575087,27.9678996 C37.8602409,27.5654838 37.9109239,27.163068 38.1643392,27.0121621 C38.7218528,26.6097462 38.975268,26.3079344 39.3807325,25.8552166 C39.6341477,25.6037067 39.83688,25.4528008 40.0902952,25.2515928 C40.2423444,25.1509889 40.2930274,25.0503849 40.3943935,24.899479 C40.4957596,24.798875 40.6478088,24.7485731 40.7491749,24.5976671 C41.9655682,23.1892118 41.762836,21.2777366 41.8642021,19.4165634 C41.762836,19.3662614 41.813519,19.4668654 41.7121529,19.3159595 C41.762836,20.8753208 41.762836,22.9880038 40.9519071,24.0946474 C40.4450766,24.798875 40.0396122,25.0503849 39.5834647,25.5031027 C39.2286833,25.8049146 39.1780003,26.0061225 38.8739019,26.2576324 C38.6204867,26.4588403 38.4177545,26.6600482 38.1643392,26.8612561 C38.01229,26.7606522 37.5054595,26.4085383 37.3534103,26.3582364 L37.3027273,26.4085383 C37.3534103,26.5091423 37.7081917,26.6600482 37.9109239,26.8612561 C37.8095578,27.4145779 36.8972629,29.0242412 36.6438476,29.527261 C36.1370171,30.3320926 35.5288204,31.1872262 34.9713068,31.8411519 C34.0590119,32.8974935 33.0960339,33.903533 31.9810067,34.7586666 C31.2714439,35.3119884 30.409832,35.9156121 29.5989032,36.3683299 C29.3454879,36.5192359 28.6359252,36.9719537 28.3318268,37.0222556 C28.0277285,37.1228596 25.1387945,36.9719537 24.5812809,36.9216517 C23.5169368,36.8713497 21.8950791,36.8713497 20.881418,36.6701418 C19.1581942,36.217424 16.5226754,35.4628943 15.3569652,34.2556469 C13.9378397,32.7968895 12.8228125,30.7345084 14.5460363,28.9739392 C16.7254076,26.7103502 17.9924839,27.9678996 20.6280027,27.163068 C21.3882485,26.9618601 23.3648876,25.4024988 24.2264995,24.798875 C25.2401606,24.0946474 26.55792,24.3964592 27.0647505,23.6922315 C27.3688488,23.2898157 27.2674827,22.585588 26.8620183,22.2334742 C26.7606522,22.2334742 25.8483572,22.4346821 25.4935758,22.4346821 C23.5676198,22.535286 19.3102433,22.686192 17.6883856,22.0825682 C17.1815551,21.8813603 16.0158449,21.0262267 16.0665279,20.472905 C16.7760907,20.5232069 17.6377026,21.4286425 20.5266366,20.7244148 C21.4896146,20.472905 22.0978113,19.4668654 24.682647,19.6680733 C26.1524555,19.7686773 27.8249963,19.1650535 28.7372913,18.5111278 C30.1057337,17.5553902 29.2441218,16.1469349 28.534559,14.9396874 C27.7236302,13.631836 27.3688488,12.6257964 26.7099691,11.5191529 C25.8990403,10.1106975 25.3922097,9.65797973 23.8210351,9.25556391 C23.1114723,9.054356 22.0471282,9.15495996 21.6923468,8.75254413 L21.0841502,7.99801447 C19.6143417,6.28774722 16.9281398,6.38835118 16.9281398,7.6962026 L16.8267737,7.89741051 C16.7254076,8.24952436 16.6747246,8.80284611 16.8774568,9.10465798 L16.8774568,9.30586589 C17.0295059,9.65797973 17.130872,10.0100936 17.2829212,10.3622074 C16.7254076,10.2616035 16.7760907,9.35616787 15.8131127,9.85918765 C15.1035499,10.2616035 15.0528669,10.6137173 14.6980855,10.8652272 L13.5323753,11.8712668 C12.6200803,12.6760984 10.6941243,13.8330439 9.42704793,14.0845538 C6.99426137,14.4869696 6.84221221,13.8833459 5.57513587,14.3360637 C5.62581892,13.581534 6.23401557,11.7203608 6.53811389,11.1167371 C7.60245801,8.80284611 8.10928854,8.40043029 9.42704793,6.74046502 L10.9475395,5.23140569 C11.1502717,5.03019778 11.8598345,4.47687602 12.1132498,4.32597009 C11.9612006,4.37627207 12.0118836,4.37627207 12.0118836,4.22536613 C11.8091514,4.42657405 11.0995887,4.87929185 10.8461734,5.13080173 L10.2886598,5.68412349 C9.27499877,6.69016305 8.61611907,7.49499469 7.75450717,8.65194018 C6.89289526,9.85918765 6.13264946,11.5191529 5.72718503,13.0785142 C5.62581892,13.48093 5.27103755,14.5875736 5.42308671,14.8390834 C5.42308671,14.8390834 5.42308671,14.7887815 5.42308671,14.7887815 C5.42308671,14.7887815 5.42308671,14.7384795 5.47376976,14.7384795 C5.52445282,14.5372716 5.52445282,14.4366676 5.9806003,14.3360637 C6.33538167,14.2354597 6.58879694,14.2354597 6.94357831,14.2857617 C9.0215835,14.5372716 10.5927582,14.0342518 12.2146159,12.9276083 C13.4816922,12.1227766 13.6844244,11.8712668 14.7487685,10.9658312 C15.0528669,10.7143213 16.117211,9.25556391 16.7254076,10.0603956 C16.9788229,10.3622074 16.9281398,10.4628114 17.4349704,10.4628114 C17.3842873,10.1106975 17.130872,9.70828171 16.9788229,9.20526193 C17.3842873,9.15495996 17.8404348,8.75254413 17.7390687,8.40043029 C17.4349704,8.55133622 17.4856534,8.95375205 16.9788229,9.054356 C16.7254076,8.65194018 16.5226754,6.03623733 19.5636586,7.04227689 C20.1718552,7.29378678 20.6786858,7.6962026 21.0841502,8.1489204 C21.6923468,8.80284611 21.4896146,9.10465798 22.756691,9.20526193 C23.6183029,9.25556391 24.2264995,9.45677182 24.8853792,9.75858369 C25.3415267,9.9597916 25.3415267,10.0100936 25.645625,10.3119054 C26.55792,11.1670391 27.4195319,13.3300241 28.1290946,14.5372716 C28.6866082,15.4427072 30.0550507,17.2032764 28.9400235,18.209316 C28.1290946,18.9638456 26.3551878,19.6177713 24.8853792,19.5674694 C23.9224012,19.5674694 23.3648876,19.5171674 22.4019096,19.7686773 C21.3882485,20.0201872 21.3882485,20.372301 20.5773197,20.5735089 C17.7390687,21.4286425 16.5226754,20.271697 15.9651618,20.422603 C15.8131127,21.0262267 17.080189,21.9316623 17.5363365,22.1328702 C19.006145,22.7867959 23.5169368,22.686192 25.3415267,22.535286 C25.9497233,22.535286 26.3045047,22.4346821 26.8620183,22.3340781 C27.2674827,23.0383058 27.1661166,23.7425335 26.4565539,23.9940434 C25.6963081,24.2455533 24.9867453,24.1449493 24.3278656,24.5976671 C23.3648876,25.2515928 21.9964452,26.3079344 21.1348333,26.8109542 C19.969123,27.5151818 17.5363365,27.263672 16.4719923,27.5654838 C15.2555991,27.9175977 14.0392058,29.0745432 13.6844244,30.1811867 C13.0762278,32.0423598 14.6474024,33.6520231 15.6103804,34.6580627 C16.3706262,35.4125924 19.2595603,36.3683299 20.3745875,36.6198398 C22.3005435,37.1228596 25.9497233,37.0725576 28.0277285,37.1731616 C27.6729471,37.4749735 25.2401606,38.2295031 24.6319639,38.3804091 C23.2128384,38.7828249 22.0978113,39.0343348 20.5266366,38.9840328 C17.6377026,38.9840328 14.9515007,38.581617 12.5187142,37.5755774 C9.62978014,36.3683299 8.86953434,35.8653102 6.69016305,34.054439 C5.82855114,33.3502113 4.05464427,31.2375282 3.44644763,30.2817906 L2.58483572,28.8733352 Z" id="路径" fill="#0B0B0B"></path>
                                    <path d="M18.5499975,11.1670391 C18.9047789,11.5191529 19.4622925,11.317945 19.91844,11.317945 C19.7663908,11.5191529 19.6143417,11.8209648 19.5129755,12.0221727 C19.3102433,12.3742865 19.1581942,12.4245885 18.955462,12.6760984 C19.7157078,12.5251925 20.6280027,11.317945 20.8307349,10.5634153 C21.2868824,10.9155292 22.1484943,11.9215687 22.8580571,12.4748905 C22.0978113,13.631836 23.1621554,14.9396874 24.2264995,15.0402914 C24.682647,15.0905933 24.9360623,15.0402914 25.2908436,14.7887815 C25.2908436,14.7887815 25.2908436,14.7887815 25.2908436,14.7384795 C25.3415267,14.7384795 25.3415267,14.7384795 25.3415267,14.7384795 C25.3415267,14.7384795 25.3922097,14.6881775 25.3922097,14.6881775 C25.3922097,14.6881775 25.3922097,14.6881775 25.4428928,14.6881775 C25.6963081,14.8390834 26.9127013,16.1469349 27.1661166,16.4990487 C27.3181658,16.7505586 27.4195319,17.0523705 27.6222641,17.2535784 C27.3688488,15.6439151 25.645625,14.6378755 25.645625,14.0845538 C25.6963081,13.48093 25.4935758,13.1288162 25.2401606,12.7767024 C25.0374284,12.5251925 24.6319639,12.2233806 24.1758165,12.1227766 C22.807374,11.8209648 24.0744504,12.9276083 21.8950791,11.217341 C21.5909807,10.9155292 21.2868824,10.7143213 20.881418,10.4628114 C20.9827841,9.80888567 21.0841502,9.65797973 20.7293688,9.10465798 C20.5266366,8.70224216 20.1718552,8.29982633 19.8677569,8.09861842 C20.0704891,8.75254413 20.7293688,9.35616787 20.4252705,10.2113015 C20.2732213,10.7143213 20.2732213,10.7646232 19.7157078,10.9155292 C19.3102433,10.9658312 18.8034128,11.0161331 18.5499975,11.1670391 Z" id="路径" fill="#412210"></path>
                                    <path d="M39.1273172,16.4990487 L39.3300494,16.7002566 C38.8232189,13.48093 37.7588748,11.0161331 36.0356509,8.45073227 C35.2754051,7.34408876 34.3631102,6.3380492 33.3494491,5.4326136 C32.285105,4.42657405 31.5248592,3.77264833 30.1057337,2.91751471 C28.9400235,2.21328702 26.3045047,0.9054356 24.73333,0.704227689 C24.682647,0.704227689 24.5812809,0.704227689 24.4799148,0.704227689 C24.3278656,0.754529667 24.4799148,0.603623733 24.3785487,0.754529667 C26.4058708,1.10664351 29.3454879,2.56540087 30.9673456,3.67204438 C31.37281,3.97385625 31.6769084,4.22536613 32.0823728,4.527178 C32.2344219,4.62778196 32.4371542,4.82898987 32.5892033,4.92959382 L34.0590119,6.3380492 C35.123356,7.29378678 36.5931645,9.55737578 37.2520442,10.8149252 C38.1136561,12.5251925 38.7725358,14.3360637 39.1273172,16.4990487 Z" id="路径" fill="#0B0B0B"></path>
                                    <path d="M16.8774568,9.10465798 C16.6747246,8.80284611 16.7254076,8.24952436 16.8267737,7.89741051 C16.3199432,7.94771249 15.5596974,8.45073227 15.7624296,8.95375205 C15.9651618,9.20526193 16.5226754,9.15495996 16.8774568,9.10465798 Z" id="路径" fill="#F8B62A"></path>
                                    <path d="M16.8774568,9.30586589 L16.8774568,9.10465798 C16.5226754,9.15495996 15.9651618,9.20526193 15.7624296,8.95375205 C15.5596974,8.45073227 16.3199432,7.94771249 16.8267737,7.89741051 L16.9281398,7.6962026 C16.167894,7.6962026 15.5090143,8.24952436 15.5596974,9.00405402 C15.8637957,9.40646985 16.3199432,9.35616787 16.8774568,9.30586589 Z" id="路径" fill="#412210"></path>
                                </g>
                            </g>
                        </g>
                        <g id="_95766864" transform="translate(0.500000, 0.000000)">
                            <ellipse id="椭圆形" fill="#FEFEFE" cx="19.5622925" cy="19.56" rx="19.4622925" ry="19.46"></ellipse>
                            <path d="M12.1132498,4.32597009 C11.8598345,4.47687602 11.1502717,5.03019778 10.9475395,5.23140569 L9.42704793,6.74046502 C8.10928854,8.40043029 7.60245801,8.80284611 6.53811389,11.1167371 C6.23401557,11.7203608 5.62581892,13.581534 5.57513587,14.3360637 C6.84221221,13.8833459 6.99426137,14.4869696 9.42704793,14.0845538 C10.6941243,13.8330439 12.6200803,12.6760984 13.5323753,11.8712668 L14.6980855,10.8652272 C15.0528669,10.6137173 15.1035499,10.2616035 15.8131127,9.85918765 C16.7760907,9.35616787 16.7254076,10.2616035 17.2829212,10.3622074 C17.130872,10.0100936 17.0295059,9.65797973 16.8774568,9.30586589 C16.3199432,9.35616787 15.8637957,9.40646985 15.5596974,9.00405402 C15.5090143,8.24952436 16.167894,7.6962026 16.9281398,7.6962026 C16.9281398,6.38835118 19.6143417,6.28774722 21.0841502,7.99801447 L21.6923468,8.75254413 C22.0471282,9.15495996 23.1114723,9.054356 23.8210351,9.25556391 C25.3922097,9.65797973 25.8990403,10.1106975 26.7099691,11.5191529 C27.3688488,12.6257964 27.7236302,13.631836 28.534559,14.9396874 C29.2441218,16.1469349 30.1057337,17.5553902 28.7372913,18.5111278 C27.8249963,19.1650535 26.1524555,19.7686773 24.682647,19.6680733 C22.0978113,19.4668654 21.4896146,20.472905 20.5266366,20.7244148 C17.6377026,21.4286425 16.7760907,20.5232069 16.0665279,20.472905 C16.0158449,21.0262267 17.1815551,21.8813603 17.6883856,22.0825682 C19.3102433,22.686192 23.5676198,22.535286 25.4935758,22.4346821 C25.8483572,22.4346821 26.7606522,22.2334742 26.8620183,22.2334742 C27.2674827,22.585588 27.3688488,23.2898157 27.0647505,23.6922315 C26.55792,24.3964592 25.2401606,24.0946474 24.2264995,24.798875 C23.3648876,25.4024988 21.3882485,26.9618601 20.6280027,27.163068 C17.9924839,27.9678996 16.7254076,26.7103502 14.5460363,28.9739392 C12.8228125,30.7345084 13.9378397,32.7968895 15.3569652,34.2556469 C16.5226754,35.4628943 19.1581942,36.217424 20.881418,36.6701418 C21.8950791,36.8713497 23.5169368,36.8713497 24.5812809,36.9216517 C25.1387945,36.9719537 28.0277285,37.1228596 28.3318268,37.0222556 C28.6359252,36.9719537 29.3454879,36.5192359 29.5989032,36.3683299 C30.409832,35.9156121 31.2714439,35.3119884 31.9810067,34.7586666 C33.0960339,33.903533 34.0590119,32.8974935 34.9713068,31.8411519 C35.5288204,31.1872262 36.1370171,30.3320926 36.6438476,29.527261 C36.8972629,29.0242412 37.8095578,27.4145779 37.9109239,26.8612561 C37.7081917,26.6600482 37.3534103,26.5091423 37.3027273,26.4085383 C37.1506781,26.3582364 36.998629,26.2576324 36.8972629,26.1570284 L36.1877001,25.6037067 C35.6301865,25.2012909 35.5795035,25.1509889 35.2247221,24.7485731 C34.5151593,23.8431375 34.3124271,23.4910236 34.0083288,22.2334742 C33.8562797,21.6298504 33.6028644,20.7244148 33.6535474,20.1207911 C33.5521813,20.0201872 33.6535474,20.1207911 33.5521813,20.0704891 C33.3494491,19.8692812 33.4508152,20.0201872 33.3494491,19.8692812 C33.248083,19.6680733 33.2987661,18.7123357 33.3494491,18.4608258 C33.5014983,17.8069001 33.6535474,17.5050883 34.2617441,17.2535784 C35.4781374,16.7505586 36.1370171,16.6499546 37.7081917,16.6499546 C37.7081917,16.0463309 37.4547764,15.6942171 37.8602409,15.5433111 C38.0629731,15.4930092 38.4684375,15.4427072 38.5191206,15.6942171 C38.5191206,15.794821 38.5191206,15.744519 38.5191206,15.845123 C38.4684375,16.0966329 38.3670714,16.3481428 38.5698036,16.6499546 C39.2286833,16.7505586 39.1273172,16.7002566 39.1273172,16.4990487 C38.7725358,14.3360637 38.1136561,12.5251925 37.2520442,10.8149252 C36.5931645,9.55737578 35.123356,7.29378678 34.0590119,6.3380492 L32.5892033,4.92959382 C32.4371542,4.82898987 32.2344219,4.62778196 32.0823728,4.527178 C31.6769084,4.22536613 31.37281,3.97385625 30.9673456,3.67204438 C29.3454879,2.56540087 26.4058708,1.10664351 24.3785487,0.754529667 C23.3142046,0.603623733 21.8950791,0.754529667 20.7800519,1.00603956 L17.5363365,1.76056922 C16.5733585,2.06238109 15.4583313,2.46479691 14.6474024,2.86721273 C13.7351075,3.31993053 12.4173481,4.17506416 12.1132498,4.32597009 Z" id="路径" fill="#F8B62A"></path>
                            <path d="M0.0506830534,20.422603 C0.15204916,22.0825682 0.405464427,23.4910236 0.810928854,25.000083 C1.01366107,25.7043106 2.02732213,28.5212214 2.48346962,28.8733352 C2.53415267,28.7727313 2.43278656,28.7727313 2.58483572,28.8733352 C2.68620183,28.6218254 3.6998629,27.9678996 3.90259511,27.8169937 C4.40942564,27.5151818 4.86557312,27.21337 5.3217206,26.9115581 C5.87923419,26.4588403 6.0819664,26.3582364 6.94357831,26.1570284 C7.55177495,25.9558205 8.21065465,25.8552166 8.81885129,25.6540087 C9.62978014,25.3521968 11.3023209,24.5976671 11.9105175,24.0946474 C12.366665,23.7425335 12.4680311,23.2395137 12.7214464,22.535286 L13.329643,20.8250188 C12.9748617,21.2274346 13.0762278,21.3783406 12.4680311,22.0322663 C11.5050531,22.9880038 9.17363266,23.7425335 7.85587327,23.8934394 C5.2203545,24.1952513 5.01762228,24.5976671 3.39576458,25.8049146 C3.09166626,26.0564245 2.43278656,26.5594443 2.07800519,26.7103502 C2.63551878,25.3018948 3.801229,23.0886078 4.66284091,22.2334742 C6.03128335,20.8753208 6.28469862,21.0262267 7.90655633,20.1710931 C9.27499877,19.3662614 10.0859276,19.0644496 11.4543701,18.4105239 C12.2652989,17.9578061 12.8228125,17.4044843 13.4816922,16.8511626 C14.0898888,16.2978408 14.4953533,15.794821 14.9515007,14.8390834 C15.154233,14.3360637 15.8637957,12.7767024 15.9144788,12.3239846 C13.1775939,14.7887815 13.0762278,14.8893854 9.83251235,16.4990487 C9.47773098,16.7002566 9.07226655,16.9014645 8.66680213,17.0523705 C8.2613377,17.2032764 7.80519022,17.3541823 7.34904274,17.5050883 C6.53811389,17.8572021 5.77786808,18.2596179 5.06830534,18.6620338 C4.25737648,19.1147516 3.64917984,19.5171674 3.09166626,20.1710931 C2.68620183,20.6238109 2.02732213,21.6298504 1.77390687,22.2837762 C1.57117465,22.686192 1.41912549,23.1892118 1.36844244,23.5916276 C1.26707633,23.8934394 1.16571023,24.899479 1.06434412,25.1006869 C0.709562747,24.3964592 0.709562747,20.6238109 0.810928854,19.6680733 C1.01366107,17.8572021 1.31775939,16.2978408 1.82458992,14.7384795 C2.58483572,12.5754944 3.59849679,10.7646232 4.91625618,8.95375205 C7.09562747,6.08653931 9.83251235,3.92355427 13.1775939,2.36419296 C15.8131127,1.15694549 19.8677569,0.251509889 23.2635215,0.553321756 C22.3005435,0.4527178 17.8911178,1.50905933 17.080189,1.76056922 C15.2555991,2.36419296 13.5323753,3.11872262 12.0118836,4.22536613 C12.0118836,4.37627207 11.9612006,4.37627207 12.1132498,4.32597009 C12.4173481,4.17506416 13.7351075,3.31993053 14.6474024,2.86721273 C15.4583313,2.46479691 16.5733585,2.06238109 17.5363365,1.76056922 L20.7800519,1.00603956 C21.8950791,0.754529667 23.3142046,0.603623733 24.3785487,0.754529667 C24.4799148,0.603623733 24.3278656,0.754529667 24.4799148,0.704227689 C24.5812809,0.704227689 24.682647,0.704227689 24.73333,0.704227689 C24.2264995,0.4527178 23.2635215,0.352113844 22.6553249,0.251509889 C22.2498604,0.201207911 20.5266366,0.0503019778 20.3745875,0 C19.2595603,0 17.9924839,0.0503019778 16.8774568,0.251509889 C14.8501346,0.553321756 13.0255447,1.05634153 11.2009548,1.96177713 C10.0352446,2.51509889 9.12294961,3.11872262 8.15997159,3.77264833 C7.09562747,4.47687602 6.28469862,5.28170767 5.52445282,6.08653931 C2.43278656,9.20526193 -0.15204916,14.1851577 0.0506830534,20.422603 Z" id="路径" fill="#412210"></path>
                            <path d="M37.3534103,26.3582364 C37.5054595,26.4085383 38.01229,26.7606522 38.1643392,26.8612561 C38.4177545,26.6600482 38.6204867,26.4588403 38.8739019,26.2576324 C39.1780003,26.0061225 39.2286833,25.8049146 39.5834647,25.5031027 C40.0396122,25.0503849 40.4450766,24.798875 40.9519071,24.0946474 C41.762836,22.9880038 41.762836,20.8753208 41.7121529,19.3159595 C41.5094207,19.1147516 41.1039563,18.5111278 40.6984919,18.4608258 C40.3943935,18.7123357 40.3943935,19.2656575 40.0902952,19.6177713 C39.2793664,19.7183753 39.3300494,18.6620338 38.975268,18.209316 C38.3163884,18.159014 38.4684375,19.3159595 38.0629731,19.6680733 C37.4040934,19.7686773 37.2520442,18.6620338 36.6438476,18.6620338 C36.2383832,18.8632417 36.086334,19.5171674 35.6808696,19.8189792 C35.0219899,20.2213951 34.8192577,19.4165634 34.5151593,19.0644496 C34.2617441,19.2153555 34.0590119,19.5171674 33.8562797,19.8189792 C33.6535474,20.1207911 33.8055966,20.422603 33.8562797,21.0262267 C33.9576458,21.6298504 34.2617441,22.8370979 34.5151593,23.3401177 C34.6672085,23.7928355 35.0726729,24.3461572 35.3767713,24.6982711 L35.7315526,25.0503849 C35.9342848,25.2515928 36.2890662,25.4528008 36.5424815,25.7043106 C36.8465798,25.9558205 37.0999951,26.0564245 37.3534103,26.3582364 Z" id="路径" fill="#FEFEFE"></path>
                            <path d="M37.3027273,26.4085383 L37.3534103,26.3582364 C37.0999951,26.0564245 36.8465798,25.9558205 36.5424815,25.7043106 C36.2890662,25.4528008 35.9342848,25.2515928 35.7315526,25.0503849 L35.3767713,24.6982711 C35.0726729,24.3461572 34.6672085,23.7928355 34.5151593,23.3401177 C34.2617441,22.8370979 33.9576458,21.6298504 33.8562797,21.0262267 C33.8055966,20.422603 33.6535474,20.1207911 33.8562797,19.8189792 C34.0590119,19.5171674 34.2617441,19.2153555 34.5151593,19.0644496 C34.8192577,19.4165634 35.0219899,20.2213951 35.6808696,19.8189792 C36.086334,19.5171674 36.2383832,18.8632417 36.6438476,18.6620338 C37.2520442,18.6620338 37.4040934,19.7686773 38.0629731,19.6680733 C38.4684375,19.3159595 38.3163884,18.159014 38.975268,18.209316 C39.3300494,18.6620338 39.2793664,19.7183753 40.0902952,19.6177713 C40.3943935,19.2656575 40.3943935,18.7123357 40.6984919,18.4608258 C41.1039563,18.5111278 41.5094207,19.1147516 41.7121529,19.3159595 C41.813519,19.4668654 41.762836,19.3662614 41.8642021,19.4165634 C42.2696665,18.9638456 42.0162512,19.1650535 42.2696665,18.6620338 L42.2696665,18.108712 C42.1176174,17.7565982 42.2189835,17.5553902 41.9148851,17.3038804 C41.7121529,17.1529744 41.4587377,17.1026724 41.1546393,17.0020685 C40.5464427,16.8511626 39.9382461,16.8008606 39.3300494,16.7002566 L39.1273172,16.4990487 C39.1273172,16.7002566 39.2286833,16.7505586 38.5698036,16.6499546 C38.3670714,16.3481428 38.4684375,16.0966329 38.5191206,15.845123 C38.5191206,15.744519 38.5191206,15.794821 38.5191206,15.6942171 C38.4684375,15.4427072 38.0629731,15.4930092 37.8602409,15.5433111 C37.4547764,15.6942171 37.7081917,16.0463309 37.7081917,16.6499546 C36.1370171,16.6499546 35.4781374,16.7505586 34.2617441,17.2535784 C33.6535474,17.5050883 33.5014983,17.8069001 33.3494491,18.4608258 C33.2987661,18.7123357 33.248083,19.6680733 33.3494491,19.8692812 C33.4508152,20.0201872 33.3494491,19.8692812 33.5521813,20.0704891 C33.6535474,20.1207911 33.5521813,20.0201872 33.6535474,20.1207911 C33.6028644,20.7244148 33.8562797,21.6298504 34.0083288,22.2334742 C34.3124271,23.4910236 34.5151593,23.8431375 35.2247221,24.7485731 C35.5795035,25.1509889 35.6301865,25.2012909 36.1877001,25.6037067 L36.8972629,26.1570284 C36.998629,26.2576324 37.1506781,26.3582364 37.3027273,26.4085383 Z" id="路径" fill="#412210"></path>
                            <path d="M2.58483572,28.8733352 C2.43278656,28.7727313 2.53415267,28.7727313 2.48346962,28.8733352 C2.53415267,29.2757511 3.49713068,30.6339045 3.6998629,30.9357163 C4.20669343,31.639944 4.71352396,32.1932658 5.2203545,32.7968895 L6.94357831,34.4568548 C8.66680213,35.9659141 11.0489056,37.3240675 13.3803261,38.1288992 C14.1912549,38.430711 15.1035499,38.6319189 16.0158449,38.8331269 C16.5226754,38.9337308 16.9788229,38.9840328 17.4856534,39.0343348 C17.8911178,39.0846367 18.6513636,39.0846367 19.006145,39.1852407 L20.6786858,39.1852407 C20.8307349,39.1349387 22.6553249,38.9840328 23.0101062,38.9337308 C27.9263624,38.1288992 32.8426186,35.2113844 35.7315526,31.1369242 C36.6438476,29.8793748 36.9479459,29.376355 37.6575087,27.9678996 C37.8602409,27.5654838 37.9109239,27.163068 38.1643392,27.0121621 C38.7218528,26.6097462 38.975268,26.3079344 39.3807325,25.8552166 C39.6341477,25.6037067 39.83688,25.4528008 40.0902952,25.2515928 C40.2423444,25.1509889 40.2930274,25.0503849 40.3943935,24.899479 C40.4957596,24.798875 40.6478088,24.7485731 40.7491749,24.5976671 C41.9655682,23.1892118 41.762836,21.2777366 41.8642021,19.4165634 C41.762836,19.3662614 41.813519,19.4668654 41.7121529,19.3159595 C41.762836,20.8753208 41.762836,22.9880038 40.9519071,24.0946474 C40.4450766,24.798875 40.0396122,25.0503849 39.5834647,25.5031027 C39.2286833,25.8049146 39.1780003,26.0061225 38.8739019,26.2576324 C38.6204867,26.4588403 38.4177545,26.6600482 38.1643392,26.8612561 C38.01229,26.7606522 37.5054595,26.4085383 37.3534103,26.3582364 L37.3027273,26.4085383 C37.3534103,26.5091423 37.7081917,26.6600482 37.9109239,26.8612561 C37.8095578,27.4145779 36.8972629,29.0242412 36.6438476,29.527261 C36.1370171,30.3320926 35.5288204,31.1872262 34.9713068,31.8411519 C34.0590119,32.8974935 33.0960339,33.903533 31.9810067,34.7586666 C31.2714439,35.3119884 30.409832,35.9156121 29.5989032,36.3683299 C29.3454879,36.5192359 28.6359252,36.9719537 28.3318268,37.0222556 C28.0277285,37.1228596 25.1387945,36.9719537 24.5812809,36.9216517 C23.5169368,36.8713497 21.8950791,36.8713497 20.881418,36.6701418 C19.1581942,36.217424 16.5226754,35.4628943 15.3569652,34.2556469 C13.9378397,32.7968895 12.8228125,30.7345084 14.5460363,28.9739392 C16.7254076,26.7103502 17.9924839,27.9678996 20.6280027,27.163068 C21.3882485,26.9618601 23.3648876,25.4024988 24.2264995,24.798875 C25.2401606,24.0946474 26.55792,24.3964592 27.0647505,23.6922315 C27.3688488,23.2898157 27.2674827,22.585588 26.8620183,22.2334742 C26.7606522,22.2334742 25.8483572,22.4346821 25.4935758,22.4346821 C23.5676198,22.535286 19.3102433,22.686192 17.6883856,22.0825682 C17.1815551,21.8813603 16.0158449,21.0262267 16.0665279,20.472905 C16.7760907,20.5232069 17.6377026,21.4286425 20.5266366,20.7244148 C21.4896146,20.472905 22.0978113,19.4668654 24.682647,19.6680733 C26.1524555,19.7686773 27.8249963,19.1650535 28.7372913,18.5111278 C30.1057337,17.5553902 29.2441218,16.1469349 28.534559,14.9396874 C27.7236302,13.631836 27.3688488,12.6257964 26.7099691,11.5191529 C25.8990403,10.1106975 25.3922097,9.65797973 23.8210351,9.25556391 C23.1114723,9.054356 22.0471282,9.15495996 21.6923468,8.75254413 L21.0841502,7.99801447 C19.6143417,6.28774722 16.9281398,6.38835118 16.9281398,7.6962026 L16.8267737,7.89741051 C16.7254076,8.24952436 16.6747246,8.80284611 16.8774568,9.10465798 L16.8774568,9.30586589 C17.0295059,9.65797973 17.130872,10.0100936 17.2829212,10.3622074 C16.7254076,10.2616035 16.7760907,9.35616787 15.8131127,9.85918765 C15.1035499,10.2616035 15.0528669,10.6137173 14.6980855,10.8652272 L13.5323753,11.8712668 C12.6200803,12.6760984 10.6941243,13.8330439 9.42704793,14.0845538 C6.99426137,14.4869696 6.84221221,13.8833459 5.57513587,14.3360637 C5.62581892,13.581534 6.23401557,11.7203608 6.53811389,11.1167371 C7.60245801,8.80284611 8.10928854,8.40043029 9.42704793,6.74046502 L10.9475395,5.23140569 C11.1502717,5.03019778 11.8598345,4.47687602 12.1132498,4.32597009 C11.9612006,4.37627207 12.0118836,4.37627207 12.0118836,4.22536613 C11.8091514,4.42657405 11.0995887,4.87929185 10.8461734,5.13080173 L10.2886598,5.68412349 C9.27499877,6.69016305 8.61611907,7.49499469 7.75450717,8.65194018 C6.89289526,9.85918765 6.13264946,11.5191529 5.72718503,13.0785142 C5.62581892,13.48093 5.27103755,14.5875736 5.42308671,14.8390834 C5.42308671,14.8390834 5.42308671,14.7887815 5.42308671,14.7887815 C5.42308671,14.7887815 5.42308671,14.7384795 5.47376976,14.7384795 C5.52445282,14.5372716 5.52445282,14.4366676 5.9806003,14.3360637 C6.33538167,14.2354597 6.58879694,14.2354597 6.94357831,14.2857617 C9.0215835,14.5372716 10.5927582,14.0342518 12.2146159,12.9276083 C13.4816922,12.1227766 13.6844244,11.8712668 14.7487685,10.9658312 C15.0528669,10.7143213 16.117211,9.25556391 16.7254076,10.0603956 C16.9788229,10.3622074 16.9281398,10.4628114 17.4349704,10.4628114 C17.3842873,10.1106975 17.130872,9.70828171 16.9788229,9.20526193 C17.3842873,9.15495996 17.8404348,8.75254413 17.7390687,8.40043029 C17.4349704,8.55133622 17.4856534,8.95375205 16.9788229,9.054356 C16.7254076,8.65194018 16.5226754,6.03623733 19.5636586,7.04227689 C20.1718552,7.29378678 20.6786858,7.6962026 21.0841502,8.1489204 C21.6923468,8.80284611 21.4896146,9.10465798 22.756691,9.20526193 C23.6183029,9.25556391 24.2264995,9.45677182 24.8853792,9.75858369 C25.3415267,9.9597916 25.3415267,10.0100936 25.645625,10.3119054 C26.55792,11.1670391 27.4195319,13.3300241 28.1290946,14.5372716 C28.6866082,15.4427072 30.0550507,17.2032764 28.9400235,18.209316 C28.1290946,18.9638456 26.3551878,19.6177713 24.8853792,19.5674694 C23.9224012,19.5674694 23.3648876,19.5171674 22.4019096,19.7686773 C21.3882485,20.0201872 21.3882485,20.372301 20.5773197,20.5735089 C17.7390687,21.4286425 16.5226754,20.271697 15.9651618,20.422603 C15.8131127,21.0262267 17.080189,21.9316623 17.5363365,22.1328702 C19.006145,22.7867959 23.5169368,22.686192 25.3415267,22.535286 C25.9497233,22.535286 26.3045047,22.4346821 26.8620183,22.3340781 C27.2674827,23.0383058 27.1661166,23.7425335 26.4565539,23.9940434 C25.6963081,24.2455533 24.9867453,24.1449493 24.3278656,24.5976671 C23.3648876,25.2515928 21.9964452,26.3079344 21.1348333,26.8109542 C19.969123,27.5151818 17.5363365,27.263672 16.4719923,27.5654838 C15.2555991,27.9175977 14.0392058,29.0745432 13.6844244,30.1811867 C13.0762278,32.0423598 14.6474024,33.6520231 15.6103804,34.6580627 C16.3706262,35.4125924 19.2595603,36.3683299 20.3745875,36.6198398 C22.3005435,37.1228596 25.9497233,37.0725576 28.0277285,37.1731616 C27.6729471,37.4749735 25.2401606,38.2295031 24.6319639,38.3804091 C23.0101062,38.7461853 22.0632935,38.9337308 20.5266366,38.9840328 C17.6377026,38.9840328 14.9515007,38.581617 12.5187142,37.5755774 C9.62978014,36.3683299 8.86953434,35.8653102 6.69016305,34.054439 C5.82855114,33.3502113 4.05464427,31.2375282 3.44644763,30.2817906 L2.58483572,28.8733352 Z" id="路径" fill="#412210"></path>
                            <path d="M18.5499975,11.1670391 C18.9047789,11.5191529 19.4622925,11.317945 19.91844,11.317945 C19.7663908,11.5191529 19.6143417,11.8209648 19.5129755,12.0221727 C19.3102433,12.3742865 19.1581942,12.4245885 18.955462,12.6760984 C19.7157078,12.5251925 20.6280027,11.317945 20.8307349,10.5634153 C21.2868824,10.9155292 22.1484943,11.9215687 22.8580571,12.4748905 C22.0978113,13.631836 23.1621554,14.9396874 24.2264995,15.0402914 C24.682647,15.0905933 24.9360623,15.0402914 25.2908436,14.7887815 C25.2908436,14.7887815 25.2908436,14.7887815 25.2908436,14.7384795 C25.3415267,14.7384795 25.3415267,14.7384795 25.3415267,14.7384795 C25.3415267,14.7384795 25.3922097,14.6881775 25.3922097,14.6881775 C25.3922097,14.6881775 25.3922097,14.6881775 25.4428928,14.6881775 C25.6963081,14.8390834 26.9127013,16.1469349 27.1661166,16.4990487 C27.3181658,16.7505586 27.4195319,17.0523705 27.6222641,17.2535784 C27.3688488,15.6439151 25.645625,14.6378755 25.645625,14.0845538 C25.6963081,13.48093 25.4935758,13.1288162 25.2401606,12.7767024 C25.0374284,12.5251925 24.6319639,12.2233806 24.1758165,12.1227766 C22.807374,11.8209648 24.0744504,12.9276083 21.8950791,11.217341 C21.5909807,10.9155292 21.2868824,10.7143213 20.881418,10.4628114 C20.9827841,9.80888567 21.0841502,9.65797973 20.7293688,9.10465798 C20.5266366,8.70224216 20.1718552,8.29982633 19.8677569,8.09861842 C20.0704891,8.75254413 20.7293688,9.35616787 20.4252705,10.2113015 C20.2732213,10.7143213 20.2732213,10.7646232 19.7157078,10.9155292 C19.3102433,10.9658312 18.8034128,11.0161331 18.5499975,11.1670391 Z" id="路径" fill="#412210"></path>
                            <path d="M39.1273172,16.4990487 L39.3300494,16.7002566 C38.8232189,13.48093 37.7588748,11.0161331 36.0356509,8.45073227 C35.2754051,7.34408876 34.3631102,6.3380492 33.3494491,5.4326136 C32.285105,4.42657405 31.5248592,3.77264833 30.1057337,2.91751471 C28.9400235,2.21328702 26.3045047,0.9054356 24.73333,0.704227689 C24.682647,0.704227689 24.5812809,0.704227689 24.4799148,0.704227689 C24.3278656,0.754529667 24.4799148,0.603623733 24.3785487,0.754529667 C26.4058708,1.10664351 29.3454879,2.56540087 30.9673456,3.67204438 C31.37281,3.97385625 31.6769084,4.22536613 32.0823728,4.527178 C32.2344219,4.62778196 32.4371542,4.82898987 32.5892033,4.92959382 L34.0590119,6.3380492 C35.123356,7.29378678 36.5931645,9.55737578 37.2520442,10.8149252 C38.1136561,12.5251925 38.7725358,14.3360637 39.1273172,16.4990487 Z" id="路径" fill="#0B0B0B"></path>
                            <path d="M16.8774568,9.10465798 C16.6747246,8.80284611 16.7254076,8.24952436 16.8267737,7.89741051 C16.3199432,7.94771249 15.5596974,8.45073227 15.7624296,8.95375205 C15.9651618,9.20526193 16.5226754,9.15495996 16.8774568,9.10465798 Z" id="路径" fill="#F8B62A"></path>
                            <path d="M16.8774568,9.30586589 L16.8774568,9.10465798 C16.5226754,9.15495996 15.9651618,9.20526193 15.7624296,8.95375205 C15.5596974,8.45073227 16.3199432,7.94771249 16.8267737,7.89741051 L16.9281398,7.6962026 C16.167894,7.6962026 15.5090143,8.24952436 15.5596974,9.00405402 C15.8637957,9.40646985 16.3199432,9.35616787 16.8774568,9.30586589 Z" id="路径" fill="#412210"></path>
                        </g>
                        <path d="M53.216,25.4 L53.216,17.56 L58.784,25.4 L60.784,25.4 L60.784,13.416 L58.592,13.416 L58.592,21.256 L53.024,13.416 L51.04,13.416 L51.04,25.4 L53.216,25.4 Z M66.448,25.672 C67.248,25.672 67.9573333,25.4426667 68.576,24.984 L68.576,25.4 L70.768,25.4 L70.768,16.216 L68.576,16.216 L68.576,21.64 C68.576,22.152 68.3946667,22.584 68.032,22.936 C67.68,23.3093333 67.248,23.496 66.736,23.496 C66.224,23.496 65.792,23.3093333 65.44,22.936 C65.0666667,22.584 64.88,22.152 64.88,21.64 L64.88,16.216 L62.704,16.216 L62.704,21.64 C62.704,22.728 63.0506667,23.656 63.744,24.424 C64.4586667,25.256 65.36,25.672 66.448,25.672 Z M76.224,25.4 L76.224,18.392 L77.904,18.392 L77.904,16.216 L76.224,16.216 L76.224,14.248 L74.032,14.248 L74.032,16.216 L72.352,16.216 L72.352,18.392 L74.032,18.392 L74.032,25.4 L76.224,25.4 Z M84.64,25.672 C85.9413333,25.672 87.04,25.176 87.936,24.184 C88.8,23.2453333 89.232,22.12 89.232,20.808 C89.232,19.4746667 88.7946667,18.3386667 87.92,17.4 C87.0346667,16.4186667 85.9413333,15.928 84.64,15.928 C83.488,15.928 82.496,16.312 81.664,17.08 L81.664,13.416 L79.488,13.416 L79.488,25.4 L81.664,25.4 L81.664,24.536 C82.4853333,25.2933333 83.4773333,25.672 84.64,25.672 Z M84.352,23.496 C83.6053333,23.496 82.9706667,23.2346667 82.448,22.712 C81.9253333,22.1786667 81.664,21.544 81.664,20.808 C81.664,20.072 81.9253333,19.4373333 82.448,18.904 C82.9706667,18.3813333 83.6053333,18.12 84.352,18.12 C85.088,18.12 85.7173333,18.3813333 86.24,18.904 C86.7733333,19.4373333 87.04,20.072 87.04,20.808 C87.04,21.544 86.7733333,22.1786667 86.24,22.712 C85.7173333,23.2346667 85.088,23.496 84.352,23.496 Z M95.472,25.672 C96.8053333,25.672 97.9573333,25.1973333 98.928,24.248 C99.8773333,23.2773333 100.352,22.1306667 100.352,20.808 C100.352,19.4746667 99.8773333,18.3226667 98.928,17.352 C97.9573333,16.4026667 96.8053333,15.928 95.472,15.928 C94.1493333,15.928 93.0026667,16.4026667 92.032,17.352 C91.0826667,18.3226667 90.608,19.4746667 90.608,20.808 C90.608,22.1306667 91.0826667,23.2773333 92.032,24.248 C93.0026667,25.1973333 94.1493333,25.672 95.472,25.672 Z M95.472,23.496 C94.736,23.496 94.1013333,23.2346667 93.568,22.712 C93.0453333,22.1786667 92.784,21.544 92.784,20.808 C92.784,20.072 93.0453333,19.4373333 93.568,18.904 C94.1013333,18.3813333 94.736,18.12 95.472,18.12 C96.208,18.12 96.8373333,18.3813333 97.36,18.904 C97.8933333,19.4373333 98.16,20.072 98.16,20.808 C98.16,21.544 97.8933333,22.1786667 97.36,22.712 C96.8373333,23.2346667 96.208,23.496 95.472,23.496 Z M103.776,25.4 L105.664,22.712 L107.536,25.4 L110.256,25.4 L107.008,20.808 L110.256,16.216 L107.536,16.216 L105.664,18.888 L103.776,16.216 L101.088,16.216 L104.304,20.808 L101.088,25.4 L103.776,25.4 Z" id="Nutbox" fill="#FFFFFF" fill-rule="nonzero"></path>
                    </g>
                </g>
            </g>
        </g>
    </g>
</svg>